<?xml version="1.0" encoding="UTF-8"?>
<svg version="1.1" xmlns="http://www.w3.org/2000/svg" width="1536" height="1024">
<path d="M0 0 C506.88 0 1013.76 0 1536 0 C1536 337.92 1536 675.84 1536 1024 C1029.12 1024 522.24 1024 0 1024 C0 686.08 0 348.16 0 0 Z " fill="#FDF6F2" transform="translate(0,0)"/>
<path d="M0 0 C3.63339852 2.74358664 4.82455216 3.92781873 5.5625 8.4375 C4.77598317 13.41877327 2.83729936 16.56502896 -1.140625 19.671875 C-2.06101562 20.32929688 -2.06101562 20.32929688 -3 21 C-2.38592285 21.0501123 -1.7718457 21.10022461 -1.13916016 21.15185547 C1.69942277 21.38693811 4.53717666 21.63092534 7.375 21.875 C8.82326172 21.99294922 8.82326172 21.99294922 10.30078125 22.11328125 C20.23036691 22.97962094 29.53468071 24.98778203 39.0625 27.875 C39.89587891 28.11863281 40.72925781 28.36226563 41.58789062 28.61328125 C57.27721755 33.32618412 71.80809497 41.06993937 84 52 C85.48113281 53.26650391 85.48113281 53.26650391 86.9921875 54.55859375 C103.95110347 69.26568104 116.75299969 89.75830208 121 112 C121.21101896 115.35385446 121.19641444 118.64640527 121 122 C121.86625 122.19335938 121.86625 122.19335938 122.75 122.390625 C128.71421705 124.00593379 133.71853184 126.61839222 137 132 C137.75 134.25 137.75 134.25 138 137 C138.09474609 137.99 138.09474609 137.99 138.19140625 139 C138.59013502 146.40863783 136.63255974 151.75603963 131.96484375 157.5078125 C122.25330433 167.83520564 110.13144464 174.05060993 97 179 C96.33935547 179.24991699 95.67871094 179.49983398 94.99804688 179.75732422 C83.08005595 184.17751982 70.94942958 186.93543997 58.51269531 189.47265625 C55.34382582 190.13771242 52.20488877 190.90775093 49.0625 191.6875 C22.52729657 197.76634969 -6.02271895 197.36413697 -33.15136719 197.31567383 C-35.96370438 197.31104199 -38.77560889 197.31800212 -41.58789062 197.33618164 C-57.37814094 197.43700847 -73.01798629 197.07004545 -88.75 195.6328125 C-89.42454601 195.57204844 -90.09909203 195.51128437 -90.79407883 195.44867897 C-103.74058433 194.25480452 -116.35191783 191.96364737 -129 189 C-130.15532227 188.74283203 -130.15532227 188.74283203 -131.33398438 188.48046875 C-142.58998497 185.96550404 -153.39888718 182.43399546 -160.80859375 173.078125 C-162.94779318 169.3468001 -162.82136192 167.24370325 -162 163 C-156.20510416 153.00880028 -143.46247071 149.82769479 -133 147 C-132.98018066 146.34104736 -132.96036133 145.68209473 -132.93994141 145.00317383 C-131.83259609 109.96884811 -123.80803764 80.9957675 -98 56 C-81.97718219 41.42952759 -62.46723484 31.16484479 -41.54296875 25.89453125 C-38.0030723 25.0007757 -34.50544839 24.01886912 -31 23 C-31.55429687 22.54109375 -32.10859375 22.0821875 -32.6796875 21.609375 C-33.76636719 20.68898438 -33.76636719 20.68898438 -34.875 19.75 C-35.59429687 19.14671875 -36.31359375 18.5434375 -37.0546875 17.921875 C-39.64429962 15.36346303 -40.78160362 13.18558037 -41.4375 9.625 C-40.79946999 5.79681995 -38.84482212 3.48325001 -36 1 C-25.48955808 -5.57683098 -10.63634762 -7.02963795 0 0 Z " fill="#50947E" transform="translate(515,379)"/>
<path d="M0 0 C4.87479147 1.19871921 8.85895613 3.76456006 12.25 7.4375 C15.17616693 13.89945196 15.36019918 21.22826445 12.875 27.875 C5.35915861 42.90668278 -11.80228413 50.80353676 -26.75 56.4375 C-27.41064453 56.68741699 -28.07128906 56.93733398 -28.75195312 57.19482422 C-40.66994405 61.61501982 -52.80057042 64.37293997 -65.23730469 66.91015625 C-68.40617418 67.57521242 -71.54511123 68.34525093 -74.6875 69.125 C-101.22270343 75.20384969 -129.77271895 74.80163697 -156.90136719 74.75317383 C-159.71370438 74.74854199 -162.52560889 74.75550212 -165.33789062 74.77368164 C-181.12814094 74.87450847 -196.76798629 74.50754545 -212.5 73.0703125 C-213.17454601 73.00954844 -213.84909203 72.94878437 -214.54407883 72.88617897 C-227.49058433 71.69230452 -240.10191783 69.40114737 -252.75 66.4375 C-253.90532227 66.18033203 -253.90532227 66.18033203 -255.08398438 65.91796875 C-266.33998497 63.40300404 -277.14888718 59.87149546 -284.55859375 50.515625 C-286.69779318 46.7843001 -286.57136192 44.68120325 -285.75 40.4375 C-280.9786156 32.21097517 -270.55426102 28.07877831 -261.75 25.4375 C-256.1868358 24.99691844 -252.83456502 26.03106993 -247.875 28.5 C-240.667301 31.90231555 -233.30118474 34.19667852 -225.625 36.3125 C-224.54621582 36.610354 -223.46743164 36.90820801 -222.35595703 37.21508789 C-217.49836157 38.52489429 -212.7255156 39.66296192 -207.75 40.4375 C-207.75 40.7675 -207.75 41.0975 -207.75 41.4375 C-214.99360855 41.5609706 -222.14141665 41.31077764 -229.3671875 40.79541016 C-237.49049276 40.25863641 -245.61343718 40.35274414 -253.75 40.4375 C-254.08 41.0975 -254.41 41.7575 -254.75 42.4375 C-253.71939453 42.62699219 -253.71939453 42.62699219 -252.66796875 42.8203125 C-249.41631127 43.50807941 -246.25983468 44.40500567 -243.0625 45.3125 C-237.39683173 46.85294812 -231.72214924 48.11902962 -225.9375 49.125 C-225.28885986 49.24407715 -224.64021973 49.3631543 -223.97192383 49.48583984 C-208.45573731 52.04205457 -192.36226369 51.64407699 -176.6875 51.625 C-175.68454895 51.62406342 -174.6815979 51.62312683 -173.64825439 51.62216187 C-149.06741207 51.57277343 -124.86644323 50.35481835 -100.5 47 C-99.74877869 46.89676422 -98.99755737 46.79352844 -98.22357178 46.68716431 C-89.89631642 45.52412377 -81.70339917 44.08604027 -73.52441406 42.10473633 C-70.11481526 41.28474042 -66.6981794 40.6366478 -63.25 40 C-57.34457777 38.83708608 -51.68962815 37.31379896 -45.96875 35.453125 C-42.73075788 34.43142846 -39.47546259 33.59503711 -36.1875 32.75 C-28.89721492 30.71531027 -22.17029312 27.64109938 -15.32592773 24.43481445 C-14.08951538 23.85606567 -14.08951538 23.85606567 -12.828125 23.265625 C-12.08981445 22.9140332 -11.35150391 22.56244141 -10.59082031 22.20019531 C-8.75 21.4375 -8.75 21.4375 -6.75 21.4375 C-6.75 20.7775 -6.75 20.1175 -6.75 19.4375 C-8.41755093 19.52639518 -10.08407605 19.63456233 -11.75 19.75 C-12.678125 19.80800781 -13.60625 19.86601563 -14.5625 19.92578125 C-17.73217197 20.4346379 -20.42798383 21.42167916 -23.40283203 22.59741211 C-28.21536662 24.31989303 -33.21894685 25.38752427 -38.1875 26.5625 C-39.26837891 26.82675781 -40.34925781 27.09101562 -41.46289062 27.36328125 C-47.56534792 28.82135776 -53.49805603 29.89842597 -59.75 30.4375 C-57.32988467 28.01738467 -55.34141701 27.4192434 -52.125 26.25 C-37.21780231 20.6330338 -23.0185224 14.58452455 -10.5625 4.4375 C-4.43523731 -0.23583595 -4.43523731 -0.23583595 0 0 Z " fill="#345E50" transform="translate(638.75,501.5625)"/>
<path d="M0 0 C3.23544556 4.14541462 2.30207855 8.81376612 1.74517822 13.88122559 C1.4034958 16.30638569 1.02332313 18.72286146 0.6328125 21.140625 C-1.14197053 32.82625747 -2.16691589 44.53628848 -3.125 56.3125 C-3.37840059 59.36009033 -3.63354369 62.40752824 -3.88961792 65.45489502 C-4.04626936 67.3257877 -4.20113334 69.19683135 -4.35379028 71.0680542 C-4.69165218 75.1637165 -5.06498994 79.24797278 -5.53442383 83.33081055 C-5.92064486 86.71203561 -6.18032252 90.07056296 -6.31640625 93.47265625 C-6.35830078 94.48134766 -6.40019531 95.49003906 -6.44335938 96.52929688 C-6.48267578 97.55087891 -6.52199219 98.57246094 -6.5625 99.625 C-6.62727539 101.20958008 -6.62727539 101.20958008 -6.69335938 102.82617188 C-6.79837337 105.40484879 -6.90052877 107.98360435 -7 110.5625 C-14.2954521 113.17023607 -20.758126 113.5685609 -28 110.5625 C-32.01193244 106.32058418 -34.56911246 101.93410704 -37.0625 96.6875 C-37.38798828 96.01847656 -37.71347656 95.34945312 -38.04882812 94.66015625 C-38.70621245 93.30893858 -39.35970292 91.95581953 -40.00927734 90.60083008 C-41.01235247 88.53708582 -42.05741129 86.49822932 -43.10546875 84.45703125 C-44.7936827 81.09128045 -46.07483405 77.70750218 -47.25 74.125 C-49.48764119 67.66302685 -52.230099 61.56457175 -55.23339844 55.42407227 C-55.72694824 54.40978149 -55.72694824 54.40978149 -56.23046875 53.375 C-56.52332764 52.78332031 -56.81618652 52.19164062 -57.11791992 51.58203125 C-58.2612444 48.96437831 -59.12487589 46.27987686 -60 43.5625 C-61.26675968 56.44686025 -61.33040035 69.36170644 -61.55224609 82.29614258 C-61.60444233 85.26390574 -61.66147307 88.23154996 -61.71875 91.19921875 C-61.73232544 92.09114426 -61.74590088 92.98306976 -61.7598877 93.90202332 C-61.80967048 96.45769444 -61.89385837 99.0085742 -62 101.5625 C-62.03295166 102.4857608 -62.06590332 103.40902161 -62.09985352 104.36026001 C-62.15520264 105.25949188 -62.21055176 106.15872375 -62.26757812 107.08520508 C-62.31144653 107.89661453 -62.35531494 108.70802399 -62.4005127 109.54402161 C-63 111.5625 -63 111.5625 -64.86828613 112.82133484 C-67.62495105 113.77978617 -70.02097203 113.90072159 -72.9375 113.9375 C-73.95714844 113.96585938 -74.97679687 113.99421875 -76.02734375 114.0234375 C-79.80336245 113.43793132 -81.30372501 112.24132701 -84 109.5625 C-84.53662109 106.94995117 -84.53662109 106.94995117 -84.3984375 103.91796875 C-84.35299805 102.76216309 -84.30755859 101.60635742 -84.26074219 100.41552734 C-84.17469727 99.14402832 -84.08865234 97.8725293 -84 96.5625 C-83.95685669 95.8949469 -83.91371338 95.2273938 -83.8692627 94.53961182 C-83.52355364 89.31187233 -83.07983349 84.09418411 -82.625 78.875 C-82.41683756 76.42187675 -82.21040791 73.96861146 -82.00405884 71.51533508 C-81.86633258 69.87961005 -81.72796955 68.24393851 -81.58895874 66.60832214 C-80.87408859 58.17074959 -80.24522612 49.72716471 -79.64697266 41.28051758 C-79.57526855 40.31009521 -79.50356445 39.33967285 -79.4296875 38.33984375 C-79.37022949 37.50702881 -79.31077148 36.67421387 -79.24951172 35.81616211 C-79 33.5625 -79 33.5625 -78.49291992 31.5480957 C-77.94469815 29.33973133 -77.79104913 27.2875388 -77.68359375 25.015625 C-77.64169922 24.17128906 -77.59980469 23.32695312 -77.55664062 22.45703125 C-77.51732422 21.58433594 -77.47800781 20.71164062 -77.4375 19.8125 C-77.39431641 18.92433594 -77.35113281 18.03617187 -77.30664062 17.12109375 C-77.20086385 14.93504037 -77.09877454 12.74887911 -77 10.5625 C-71.13551674 7.38903047 -64.19322654 7.70216559 -57.734375 9.02734375 C-53.15104872 10.71121797 -51.41902507 13.49929382 -49 17.5625 C-47.94100263 20.10301031 -46.96980614 22.59653944 -46.0625 25.1875 C-45.5446466 26.61519304 -45.02510027 28.0422731 -44.50390625 29.46875 C-44.25012207 30.16613281 -43.99633789 30.86351562 -43.73486328 31.58203125 C-41.57034174 37.41545276 -39.07433299 43.12402757 -36.56640625 48.81640625 C-31.73203846 59.85383297 -27.80224285 71.13556825 -24 82.5625 C-23.97938507 81.97749222 -23.95877014 81.39248444 -23.93753052 80.78974915 C-23.71930784 74.63998985 -23.49031455 68.49069542 -23.25537109 62.34155273 C-23.16933612 60.05389232 -23.08594689 57.76613068 -23.00537109 55.47827148 C-22.20635675 32.88392134 -22.20635675 32.88392134 -20.44140625 23.07543945 C-19.8212426 19.54482861 -19.61742138 16.07928706 -19.4375 12.5 C-19.00561037 4.10018734 -19.00561037 4.10018734 -18 1.5625 C-12.08287928 -1.81871184 -6.4015329 -3.06740118 0 0 Z " fill="#529A83" transform="translate(751,423.4375)"/>
<path d="M0 0 C2.28833008 2.3840332 2.28833008 2.3840332 2.84033203 5.36376953 C2.7986792 6.53190186 2.75702637 7.70003418 2.71411133 8.90356445 C2.69463943 9.55404251 2.67516754 10.20452057 2.65510559 10.87471008 C2.32205271 19.63273645 1.39112516 28.35939713 0.47583008 37.0715332 C0.29358774 38.87155409 0.11162365 40.67160317 -0.07006836 42.47167969 C-0.94710826 51.01764167 -1.94212734 59.48762095 -3.46166992 67.9465332 C-5.81417814 81.18204117 -4.9637697 94.99559565 -4.71166992 108.3840332 C-6.11981502 108.88065834 -7.53047982 109.37014199 -8.94213867 109.85668945 C-9.72741943 110.13005127 -10.5127002 110.40341309 -11.32177734 110.68505859 C-15.0580219 111.7778023 -17.82757691 111.8448578 -21.71166992 111.3840332 C-24.54876406 109.66684464 -25.44594689 108.2713038 -26.39135742 105.11450195 C-26.90572253 102.87736602 -27.34378414 100.64943515 -27.71166992 98.3840332 C-28.39229492 99.2709082 -29.07291992 100.1577832 -29.77416992 101.0715332 C-34.78104682 107.05432679 -40.66261815 110.9313596 -48.54370117 111.63793945 C-53.34947786 111.82163745 -56.80639181 111.8043409 -61.21166992 109.7590332 C-66.86525959 104.38812302 -69.3909172 98.90270752 -69.93432617 91.24731445 C-70.35654145 74.56063254 -65.40317657 62.757443 -54.07104492 50.64575195 C-50.58125383 47.30040586 -46.94703099 44.70048519 -42.71166992 42.3840332 C-42.1006543 42.04500977 -41.48963867 41.70598633 -40.86010742 41.35668945 C-34.49779879 38.41919802 -27.56425835 39.12417381 -20.71166992 39.3840332 C-19.90169217 26.38992207 -19.27608519 13.39099212 -18.71166992 0.3840332 C-5.25462501 -3.13139128 -5.25462501 -3.13139128 0 0 Z " fill="#539A84" transform="translate(997.711669921875,425.615966796875)"/>
<path d="M0 0 C1.0621875 -0.01160156 2.124375 -0.02320313 3.21875 -0.03515625 C4.75789062 -0.02935547 4.75789062 -0.02935547 6.328125 -0.0234375 C7.71112793 -0.01836182 7.71112793 -0.01836182 9.12207031 -0.01318359 C12.23653242 0.44686794 14.16996978 1.61398073 16.75 3.375 C16.31135274 10.11631585 15.70355679 16.75746703 14.6875 23.4375 C13.59436231 31.21191103 13.56300831 38.97182402 13.5625 46.8125 C13.5617749 48.0094751 13.5610498 49.2064502 13.56030273 50.43969727 C13.60004318 56.82987125 13.90312525 63.04037689 14.75 69.375 C8.54651646 73.12049949 3.03140662 74.68071266 -4.25 73.375 C-6.7401782 71.70746996 -7.19302995 70.58551501 -7.98046875 67.67578125 C-8.13128906 66.68964844 -8.28210938 65.70351563 -8.4375 64.6875 C-8.59605469 63.69363281 -8.75460937 62.69976563 -8.91796875 61.67578125 C-9.02753906 60.91652344 -9.13710938 60.15726563 -9.25 59.375 C-9.67410156 59.89449219 -10.09820313 60.41398438 -10.53515625 60.94921875 C-16.80168408 68.4001892 -22.68575004 73.78890625 -32.75 74.6875 C-39.31963806 74.10092517 -42.79433983 71.18273713 -46.953125 66.38671875 C-52.0757304 58.44050857 -51.03335751 47.27168219 -49.6875 38.25 C-46.26433746 23.93927884 -36.41653616 12.50892009 -24.21875 4.84765625 C-16.10233844 0.82148894 -9.03177257 -0.10010585 0 0 Z " fill="#529A84" transform="translate(804.25,463.625)"/>
<path d="M0 0 C2.90686491 1.98248187 4.58727661 3.75840214 6 7 C7.18902444 13.77581049 7.17358577 20.05851589 3.4375 26 C-3.68439353 34.98993118 -12.56388376 40.49828777 -24 42 C-27.02393562 42.13786941 -29.97017519 42.09618491 -33 42 C-32.57316368 43.27445454 -32.13302798 44.54445882 -31.6875 45.8125 C-31.32205078 46.87404297 -31.32205078 46.87404297 -30.94921875 47.95703125 C-29.9091758 50.19547761 -28.90047152 51.43739008 -27 53 C-18.98188215 55.67270595 -12.87645959 53.13521203 -5.26953125 50.19140625 C-2.47807971 49.17421065 0.05851776 48.38180117 3 48 C4 49 4 49 4.5 51.5625 C3.73844031 56.79822288 0.93219451 59.6005092 -3 63 C-12.52983733 69.13184023 -23.19738886 71.68953343 -34.421875 69.53515625 C-42.56351766 67.16285003 -48.2324267 62.99081152 -52.5 55.625 C-56.70851901 46.35705923 -56.30016992 36.32557207 -53.4375 26.6875 C-47.83813437 12.17646795 -39.04228221 3.15306503 -25.1875 -3.3125 C-16.33019493 -5.22289913 -7.88147818 -4.65342594 0 0 Z " fill="#976C4F" transform="translate(1174,468)"/>
<path d="M0 0 C0.73412109 -0.02900391 1.46824219 -0.05800781 2.22460938 -0.08789062 C7.86273769 -0.15292671 11.04157635 1.10418292 15.6875 4.3125 C20.45835322 9.58554829 21.16552922 13.05679262 21.08984375 20.0703125 C20.21676934 27.1057665 16.28463342 32.36170283 10.8125 36.6875 C1.55499717 42.90601234 -7.12685069 45.71925088 -18.3125 45.3125 C-17.05170839 49.83033661 -15.67231725 52.99711008 -12.3125 56.3125 C-3.85565693 58.02196887 3.87988583 56.58510067 11.3203125 52.30859375 C14.20687776 51.09394995 15.73342637 51.43468808 18.6875 52.3125 C19.16074698 56.28777463 18.90778143 57.97519406 16.6875 61.375 C10.65477426 67.86655276 1.91111097 72.21583087 -6.93359375 72.78125 C-8.53873153 72.81547188 -10.14454912 72.82537967 -11.75 72.8125 C-12.58821289 72.80605469 -13.42642578 72.79960938 -14.29003906 72.79296875 C-23.22634264 72.52798277 -28.1489233 69.82258815 -34.25 63.375 C-41.00658166 55.59614594 -39.94053514 45.331785 -39.49902344 35.65136719 C-38.67250262 25.28740202 -32.48999174 16.1132876 -25.00390625 9.171875 C-16.97764857 2.72921285 -10.22977041 0.13262451 0 0 Z " fill="#569B86" transform="translate(903.3125,464.6875)"/>
<path d="M0 0 C0.05896868 3.14575207 0.09391603 6.2913586 0.125 9.4375 C0.14175781 10.31599609 0.15851563 11.19449219 0.17578125 12.09960938 C0.26872578 24.69359279 -3.15049637 33.45412689 -11.625 42.9375 C-12.40875 43.618125 -13.1925 44.29875 -14 45 C-14.680625 45.680625 -15.36125 46.36125 -16.0625 47.0625 C-25.87285299 53.53315835 -37.03793171 54.17207273 -48.44921875 52.6796875 C-58.26548742 50.55829348 -65.39693444 45.38995173 -70.921875 37.125 C-76.81676332 27.38138293 -78.3563811 19.26333072 -79 8 C-74.78374307 7.8126108 -71.10049304 8.12244531 -66.96484375 8.984375 C-46.39710528 12.8214994 -26.85668635 9.5394758 -8 1 C-5.07175348 0.02391783 -3.04386724 -0.08226668 0 0 Z " fill="#274338" transform="translate(568,484)"/>
<path d="M0 0 C0.66 0.66 1.32 1.32 2 2 C1.91891518 6.29749569 1.41932934 8.46419029 -1.25 11.875 C-5.40751043 15.0876217 -5.40751043 15.0876217 -9 15 C-9.9075 14.360625 -10.815 13.72125 -11.75 13.0625 C-15.84091713 10.46634105 -19.24629531 10.18236279 -24 11 C-26.22350382 12.82061252 -26.22350382 12.82061252 -26.33203125 15.41796875 C-25.91929333 18.62761305 -25.17231886 19.30572244 -22.6875 21.3125 C-21.96433594 21.90417969 -21.24117187 22.49585938 -20.49609375 23.10546875 C-16.90152126 25.83374364 -13.23227843 28.44863114 -9.515625 31.0078125 C-4.77048257 34.76561163 -1.57835973 38.98232773 -0.70703125 45.03515625 C-0.31037653 51.28514816 -2.01256285 55.23918083 -6 60 C-12.08054522 66.38385033 -18.9298359 69.55353814 -27.76171875 70.203125 C-35.98970581 70.33494856 -43.68465163 69.6123671 -50.625 64.8125 C-53.32241216 61.61819613 -53.90803528 60.0313315 -53.58984375 55.94140625 C-52.44607052 52.17680163 -50.3546159 50.96213383 -47 49 C-43.26865595 49.33540171 -40.7552619 50.57924743 -37.625 52.5625 C-33.5902712 54.89307791 -30.73102799 55.67586114 -26 55 C-23.72419485 53.08330265 -23.72419485 53.08330265 -23.3125 49.875 C-24.59838253 42.62729844 -31.51354291 39.06401425 -37.1875 34.9375 C-41.87661755 31.50506595 -46.13467183 27.59598452 -48 22 C-48.59964036 16.37714283 -48.61252565 11.39284518 -45.38671875 6.59375 C-34.63453218 -5.76369259 -14.01314184 -8.40175244 0 0 Z " fill="#996C4F" transform="translate(1114,468)"/>
<path d="M0 0 C1.44632813 -0.00386719 1.44632813 -0.00386719 2.921875 -0.0078125 C5.25 0.125 5.25 0.125 6.25 1.125 C6.21033125 3.49597082 6.1004192 5.82405573 5.9375 8.1875 C5.85886719 9.47785156 5.78023437 10.76820313 5.69921875 12.09765625 C5.36919174 16.29967138 4.83619129 20.46983162 4.29296875 24.6484375 C3.57159571 30.21811983 2.98279289 35.78026921 2.5390625 41.37890625 C2.48355728 42.06285965 2.42805206 42.74681305 2.37086487 43.45149231 C2.14697391 46.22484407 1.92503209 48.9981062 1.72363281 51.77319336 C0.2613867 71.65089252 -4.10062715 87.02269916 -18.75 101.125 C-24.67801891 105.76517401 -30.18679961 107.9353429 -37.75 107.125 C-41.11132862 104.02903943 -41.99638132 101.52110898 -42.75 97.125 C-42.16992188 96.67769531 -41.58984375 96.23039063 -40.9921875 95.76953125 C-39.36990395 94.51400157 -37.75160189 93.2533153 -36.13671875 91.98828125 C-34.7543673 90.9090969 -33.36477737 89.83881064 -31.95703125 88.79296875 C-23.43952634 82.24609479 -22.14182964 73.16724492 -20.75 63.125 C-18.24223048 43.47320612 -17.15009967 23.91777583 -16.75 4.125 C-10.97532746 1.03622167 -6.50879658 -0.01759134 0 0 Z " fill="#539983" transform="translate(851.75,464.875)"/>
<path d="M0 0 C1.51400391 0.01740234 1.51400391 0.01740234 3.05859375 0.03515625 C4.07050781 0.04417969 5.08242188 0.05320312 6.125 0.0625 C6.90746094 0.07410156 7.68992187 0.08570313 8.49609375 0.09765625 C8.49609375 0.75765625 8.49609375 1.41765625 8.49609375 2.09765625 C-2.52021622 7.39024241 -13.43071175 12.03671467 -25.21484375 15.38671875 C-27.52865295 16.06492976 -27.52865295 16.06492976 -29.78027344 17.05444336 C-32.62983327 18.14588914 -35.39164171 18.84537658 -38.37109375 19.5 C-39.49555908 19.7489502 -40.62002441 19.99790039 -41.77856445 20.25439453 C-43.56073364 20.64087158 -43.56073364 20.64087158 -45.37890625 21.03515625 C-46.60762451 21.30312012 -47.83634277 21.57108398 -49.10229492 21.84716797 C-51.51968872 22.37255612 -53.93756154 22.89574606 -56.35595703 23.41650391 C-58.7614019 23.93699337 -61.1628236 24.46950958 -63.5625 25.015625 C-95.68797818 31.99607104 -128.68713356 33.26538347 -161.44140625 33.28515625 C-162.40900879 33.2862439 -163.37661133 33.28733154 -164.37353516 33.28845215 C-180.8192199 33.2863527 -197.28903096 33.26149554 -213.50390625 30.22265625 C-214.43589844 30.06152344 -215.36789062 29.90039062 -216.328125 29.734375 C-224.27565211 28.30448519 -232.0763698 26.31625538 -239.50390625 23.09765625 C-239.00890625 21.61265625 -239.00890625 21.61265625 -238.50390625 20.09765625 C-228.74740906 19.89649136 -219.44204749 20.09437835 -209.77075195 21.56469727 C-205.10589421 22.19722561 -200.4468741 22.44905321 -195.74609375 22.65234375 C-194.7983609 22.69390091 -193.85062805 22.73545807 -192.87417603 22.77827454 C-180.54613966 23.27167747 -168.21513916 23.29542262 -155.87890625 23.28515625 C-154.6451123 23.28488434 -153.41131836 23.28461243 -152.14013672 23.28433228 C-134.50992708 23.26647 -117.0411914 23.0559139 -99.50390625 21.09765625 C-98.40739746 20.97986816 -97.31088867 20.86208008 -96.18115234 20.74072266 C-82.18322384 19.26085286 -82.18322384 19.26085286 -68.50390625 16.09765625 C-64.84905841 15.26937677 -61.17635886 14.53092836 -57.50390625 13.78515625 C-55.35533677 13.34178493 -53.20690254 12.89775777 -51.05859375 12.453125 C-49.96901367 12.22802246 -48.87943359 12.00291992 -47.75683594 11.77099609 C-32.97351672 8.71092446 -14.43994424 0.56318035 0 0 Z " fill="#F0EEE7" transform="translate(623.50390625,520.90234375)"/>
<path d="M0 0 C2 2 2 2 2.2109375 5.07421875 C1.97820812 9.40557102 1.36620462 13.54505194 0.625 17.8125 C-2.22762548 35.19937017 -3.44839742 52.38907867 -4 70 C-8.18570633 71.57042196 -11.71833894 72.29550699 -16.1875 72.3125 C-17.21230469 72.32925781 -18.23710938 72.34601563 -19.29296875 72.36328125 C-22.43288681 71.94190697 -23.0848266 71.43768153 -25 69 C-25.31134039 65.89575316 -25.42325687 63.04107359 -25.375 59.9375 C-25.36847412 59.01864014 -25.36194824 58.09978027 -25.35522461 57.15307617 C-25.19487686 48.53384548 -24.223761 40.04964072 -23.14477539 31.50415039 C-21.99068258 22.34212267 -21.34562873 13.2247117 -21 4 C-14.00084946 0.43349296 -7.882256 -0.82310284 0 0 Z " fill="#559C86" transform="translate(1031,465)"/>
<path d="M0 0 C0 0.66 0 1.32 0 2 C-1.54287884 3.04174694 -3.13800326 4.0062759 -4.75 4.9375 C-25.21913663 17.68144257 -38.49042887 37.40757267 -44.078125 60.640625 C-45.70128342 66.55552431 -48.22412769 71.13305731 -52.4375 75.5625 C-55.65201605 77.3657651 -57.37369633 77.69439857 -61 77 C-64.07975476 74.09910577 -64.94331037 72.40766514 -65.53125 68.1796875 C-65.54839473 66.74485628 -65.53676885 65.30946248 -65.5 63.875 C-65.48718994 63.11799805 -65.47437988 62.36099609 -65.46118164 61.58105469 C-65.22877651 55.10681321 -63.86851249 49.83093462 -61 44 C-60.2884375 42.44732422 -60.2884375 42.44732422 -59.5625 40.86328125 C-55.28741455 32.17951393 -49.80197318 25.73414724 -43 19 C-42.28070313 18.25878906 -41.56140625 17.51757812 -40.8203125 16.75390625 C-30.04111284 6.3204545 -15.05748631 -0.72858805 0 0 Z " fill="#F7F3EE" transform="translate(471,423)"/>
<path d="M0 0 C-1.49511935 3.79028951 -3.17933831 7.34698794 -5.09765625 10.9375 C-6.11698253 13.26738864 -6.5335288 15.5066768 -7 18 C-53.3296813 18.37994313 -53.3296813 18.37994313 -70.375 17.125 C-71.45104492 17.04652832 -72.52708984 16.96805664 -73.63574219 16.88720703 C-79.57898939 16.38535423 -85.20854573 15.42688004 -91 14 C-91.33 12.68 -91.66 11.36 -92 10 C-85.57826073 7.65653562 -79.2292314 6.10611353 -72.5 4.9375 C-71.53731201 4.76758545 -70.57462402 4.5976709 -69.58276367 4.42260742 C-46.42131805 0.42448931 -23.4716233 -0.18685309 0 0 Z " fill="#C5C3C3" transform="translate(378,470)"/>
<path d="M0 0 C0.95922363 -0.00080566 1.91844727 -0.00161133 2.90673828 -0.00244141 C3.91849121 0.01512207 4.93024414 0.03268555 5.97265625 0.05078125 C7.52122314 0.0655249 7.52122314 0.0655249 9.10107422 0.08056641 C18.44810266 0.23759766 27.30902126 0.77269128 36.03515625 4.36328125 C37.19015625 4.63140625 38.34515625 4.89953125 39.53515625 5.17578125 C54.99661967 8.97636444 71.09145231 16.78717699 83.03515625 27.36328125 C84.29585937 28.44609375 84.29585937 28.44609375 85.58203125 29.55078125 C105.47432677 46.97125306 105.47432677 46.97125306 107.03515625 58.36328125 C104.48725995 55.9173008 102.14553447 53.35307657 99.84765625 50.67578125 C98.58173005 49.23395794 97.31066348 47.79663568 96.03515625 46.36328125 C95.39964844 45.64785156 94.76414062 44.93242187 94.109375 44.1953125 C85.61283863 35.15474178 75.14006061 28.72553894 64.03515625 23.36328125 C64.03515625 22.70328125 64.03515625 22.04328125 64.03515625 21.36328125 C62.90078125 21.13640625 61.76640625 20.90953125 60.59765625 20.67578125 C55.0300555 19.45232758 49.59963885 17.79724572 44.15258789 16.12817383 C43.44996826 15.91572021 42.74734863 15.7032666 42.0234375 15.484375 C41.39993408 15.29286865 40.77643066 15.1013623 40.1340332 14.90405273 C34.56882691 13.47018837 29.20345926 13.20675823 23.49609375 13.15234375 C21.84764592 13.12429887 20.19920852 13.09563461 18.55078125 13.06640625 C15.97233109 13.02504074 13.39408124 12.9881179 10.81542969 12.96191406 C8.31275224 12.93432849 5.81093849 12.8884925 3.30859375 12.83984375 C2.53873138 12.83659088 1.76886902 12.83333801 0.97567749 12.82998657 C-2.23831354 12.75614867 -4.59731651 12.56173585 -7.45068359 11.02099609 C-8.96484375 9.36328125 -8.96484375 9.36328125 -9.46484375 6.36328125 C-8.96484375 3.36328125 -8.96484375 3.36328125 -7.24389648 1.69848633 C-4.58604053 0.14135572 -3.06078138 -0.01061079 0 0 Z " fill="#F2F1EA" transform="translate(498.96484375,407.63671875)"/>
<path d="M0 0 C1.14662109 0.02320313 1.14662109 0.02320313 2.31640625 0.046875 C4.4375 0.25 4.4375 0.25 7.4375 1.25 C6.76125632 16.75021688 5.98770416 29.89133355 -4.953125 41.98828125 C-6.5625 43.25 -6.5625 43.25 -10.1875 44 C-13.5625 43.25 -13.5625 43.25 -15.9375 40.9375 C-19.86301962 34.44529447 -19.51958361 26.47757502 -17.87890625 19.23046875 C-15.15829784 11.15895419 -9.86518805 -0.33384731 0 0 Z " fill="#F8F4EF" transform="translate(967.5625,477.75)"/>
<path d="M0 0 C0.23548481 6.82213338 -0.51664123 12.81371237 -2.125 19.4375 C-2.34655762 20.35821289 -2.56811523 21.27892578 -2.79638672 22.22753906 C-4.44838221 28.69107173 -6.37122033 34.99181216 -11 40 C-12.485 40.495 -12.485 40.495 -14 41 C-14 41.66 -14 42.32 -14 43 C-17.3125 43.25 -17.3125 43.25 -21 43 C-24.1447072 40.06493995 -24.8139292 36.82715421 -25.23828125 32.66015625 C-25.53501831 22.27435921 -23.13711392 11.80103149 -16 4 C-10.95773392 -0.22084429 -6.3732594 -0.42720664 0 0 Z " fill="#F7F4EF" transform="translate(800,478)"/>
<path d="M0 0 C2.83581665 1.82103913 5.44982363 3.79887011 8 6 C7.68705563 8.87908817 7.21071425 9.82533952 4.9453125 11.703125 C-4.31828012 16.78398744 -13.59883983 17.56602274 -24 16 C-29.45204266 14.29663993 -33.50517932 11.42893479 -38 8 C-37.62899407 5.43569434 -37.33994311 4.28752197 -35.328125 2.5859375 C-34.64234375 2.18632813 -33.9565625 1.78671875 -33.25 1.375 C-32.57453125 0.97023438 -31.8990625 0.56546875 -31.203125 0.1484375 C-21.64936144 -4.83171584 -9.77590109 -4.60141551 0 0 Z " fill="#D35737" transform="translate(544,515)"/>
<path d="M0 0 C0 4.29 0 8.58 0 13 C-5.01298895 13.07518327 -10.02563671 13.12907998 -15.0390625 13.16479492 C-16.73801402 13.17971208 -18.43692821 13.20005315 -20.13574219 13.22631836 C-31.95809499 13.40428176 -42.66357365 12.77880878 -54 9 C-53.67 8.01 -53.34 7.02 -53 6 C-36.91162416 -0.77786149 -17.1566361 -0.44243474 0 0 Z " fill="#C9C7C6" transform="translate(367,503)"/>
<path d="M0 0 C-0.83017486 5.79601473 -3.32119743 9.48933917 -8 13 C-11.67779394 14.00755468 -15.09057331 13.85664194 -18.875 13.625 C-19.88570557 13.5926123 -20.89641113 13.56022461 -21.93774414 13.52685547 C-33.48357542 13.07615293 -44.80966737 11.94938999 -56 9 C-56 8.34 -56 7.68 -56 7 C-48.38848827 3.88318089 -41.22900241 2.1245911 -33.0625 1.25 C-31.45290405 1.06570435 -31.45290405 1.06570435 -29.81079102 0.87768555 C-19.85744451 -0.17805045 -9.99527676 -0.30153349 0 0 Z " fill="#C7C5C5" transform="translate(390,447)"/>
<path d="M0 0 C2.67100878 2.87647099 2.92929096 3.66764805 3.1875 7.4375 C2.90768871 12.28756238 1.34372106 14.88390383 -1.95703125 18.34765625 C-6.25351004 21.76602259 -12.37795135 21.19348121 -17.5625 20.625 C-20.56447464 18.82381522 -22.01416366 17.72167268 -23.5625 14.625 C-23.74282429 10.70490666 -23.51662212 7.05029354 -21.296875 3.734375 C-15.46482804 -2.33331022 -7.73723362 -2.98630069 0 0 Z " fill="#5DA28D" transform="translate(1033.5625,434.375)"/>
<path d="M0 0 C3.32297261 2.34423483 4.01543456 4.13669339 4.70703125 8.09765625 C4.34367924 12.78578334 2.36498294 14.96677054 -0.98046875 18.16015625 C-4.42050137 20.38247821 -7.43130968 20.48872094 -11.48046875 20.53515625 C-12.60453125 20.56351562 -13.72859375 20.591875 -14.88671875 20.62109375 C-17.98046875 20.16015625 -17.98046875 20.16015625 -20.3515625 18.41015625 C-22.63403932 15.25738251 -22.60836965 13.20295433 -22.43359375 9.4140625 C-21.64533677 5.49316356 -19.92994338 3.84745535 -16.98046875 1.16015625 C-12.23360213 -1.82358848 -5.16464021 -2.19013342 0 0 Z " fill="#599E89" transform="translate(857.98046875,433.83984375)"/>
<path d="M0 0 C5.69862976 2.00913229 9.21840659 5.74082564 12.16796875 10.9296875 C13.45291999 14.12698402 13.35469254 16.5949516 13 20 C11.35 20.33 9.7 20.66 8 21 C4 15.25 4 15.25 4 13 C0.85409472 11.1533317 -1.43150052 10.75225717 -5.0625 10.8125 C-5.91972656 10.81894531 -6.77695312 10.82539063 -7.66015625 10.83203125 C-10.15477968 10.91409966 -10.15477968 10.91409966 -13 12 C-14.12001826 13.82234288 -14.12001826 13.82234288 -15 16 C-16.33333333 18.66666667 -17.66666667 21.33333333 -19 24 C-20.32 24 -21.64 24 -23 24 C-24.5414942 22.4585058 -24.20646315 21.01556186 -24.25 18.875 C-24.12585482 12.336687 -22.12780454 7.80279423 -17.625 3.0625 C-12.26970864 -1.31461083 -6.59163206 -1.15353561 0 0 Z " fill="#28473C" transform="translate(494,460)"/>
<path d="M0 0 C4.61014573 2.72417702 7.80154969 7.25551455 9.890625 12.1171875 C10.21205357 17.47433036 10.21205357 17.47433036 8.890625 20.1171875 C6.703125 20.1171875 6.703125 20.1171875 3.890625 19.1171875 C2.44078497 17.18117356 1.27869739 15.15653344 0.0703125 13.0625 C-1.37911887 10.67237807 -2.58146154 9.34284251 -5.109375 8.1171875 C-9.04922936 7.51764444 -10.77908216 7.93585026 -14.296875 9.8671875 C-18.69694335 13.38724218 -20.69406059 17.05652874 -23.109375 22.1171875 C-24.429375 21.7871875 -25.749375 21.4571875 -27.109375 21.1171875 C-27.69068502 14.81320332 -27.49663854 10.11995771 -23.72265625 4.87890625 C-16.88844117 -2.58412281 -9.19845154 -3.80250949 0 0 Z " fill="#29483D" transform="translate(574.109375,453.8828125)"/>
<path d="M0 0 C2.8125 0.875 2.8125 0.875 4.8125 2.875 C5.50633234 7.43331712 5.48576764 11.55773723 3.375 15.6875 C-1.16730827 19.56508023 -6.07077146 23.1875 -12.25 23.1875 C-13.219375 23.084375 -14.18875 22.98125 -15.1875 22.875 C-14.08806188 13.94821884 -11.97674263 7.85856276 -5.75 1.3125 C-3.1875 -0.125 -3.1875 -0.125 0 0 Z " fill="#F2F1EB" transform="translate(900.1875,477.125)"/>
<path d="M0 0 C2.8125 0.875 2.8125 0.875 4.8125 2.875 C5.57688063 7.31907341 5.19401883 11.01243569 3.375 15.125 C-0.35495327 19.12787668 -4.78676324 22.3847478 -10.328125 23.18359375 C-12.25 23.1875 -12.25 23.1875 -15.1875 22.875 C-14.08806188 13.94821884 -11.97674263 7.85856276 -5.75 1.3125 C-3.1875 -0.125 -3.1875 -0.125 0 0 Z " fill="#F8F1EC" transform="translate(1156.1875,477.125)"/>
<path d="M0 0 C0.66 0.33 1.32 0.66 2 1 C2.625 3.0625 2.625 3.0625 3 5 C0.10555905 5.6732656 -2.79030013 6.33880404 -5.6875 7 C-6.50412109 7.19078125 -7.32074219 7.3815625 -8.16210938 7.578125 C-12.17239326 8.48733916 -15.85717252 9.27000098 -20 9 C-17.45527603 6.45527603 -15.0573953 5.75178444 -11.6875 4.5 C-9.99173828 3.86578125 -9.99173828 3.86578125 -8.26171875 3.21875 C-6.64716797 2.61546875 -6.64716797 2.61546875 -5 2 C-4.07832031 1.5978125 -3.15664063 1.195625 -2.20703125 0.78125 C-1.47871094 0.5234375 -0.75039063 0.265625 0 0 Z " fill="#366958" transform="translate(599,523)"/>
<path d="M0 0 C2.91337636 2.78475047 5.35410649 5.65252735 7.6875 8.9375 C8.59048828 10.18853516 8.59048828 10.18853516 9.51171875 11.46484375 C11.02580682 14.04395965 11.60500846 16.05599636 12 19 C6.88250846 14.08720812 2.19778408 8.71613152 -2 3 C-1.34 3 -0.68 3 0 3 C0 2.01 0 1.02 0 0 Z " fill="#DDE8DE" transform="translate(594,447)"/>
<path d="M0 0 C-2.75 2.0625 -2.75 2.0625 -6 4 C-7.90625 3.6875 -7.90625 3.6875 -10 3 C-11.58226891 2.64110788 -13.16562863 2.28699368 -14.75 1.9375 C-15.54921875 1.76089844 -16.3484375 1.58429687 -17.171875 1.40234375 C-17.77515625 1.26957031 -18.3784375 1.13679687 -19 1 C-19 0.67 -19 0.34 -19 0 C-16.58373582 -0.19534474 -14.16734771 -0.38153404 -11.75 -0.5625 C-11.06808594 -0.61857422 -10.38617187 -0.67464844 -9.68359375 -0.73242188 C-6.2579419 -0.98186254 -3.27298823 -1.13879745 0 0 Z " fill="#4C886F" transform="translate(541,537)"/>
<path d="M0 0 C0 0.66 0 1.32 0 2 C1.65 2 3.3 2 5 2 C4.67 2.66 4.34 3.32 4 4 C1.05859375 4.4140625 1.05859375 4.4140625 -2.5625 4.625 C-3.76003906 4.69976563 -4.95757813 4.77453125 -6.19140625 4.8515625 C-7.58166016 4.92503906 -7.58166016 4.92503906 -9 5 C-4.16129032 0 -4.16129032 0 0 0 Z " fill="#76AC95" transform="translate(544,536)"/>
<path d="M0 0 C2.64 0.33 5.28 0.66 8 1 C8.33 1.99 8.66 2.98 9 4 C6.03 4 3.06 4 0 4 C-0.33 3.34 -0.66 2.68 -1 2 C-0.67 1.34 -0.34 0.68 0 0 Z " fill="#5B9B84" transform="translate(524,538)"/>
<path d="M0 0 C2.63249349 2.45699392 4.78137264 4.56568654 6 8 C5.67 8.99 5.34 9.98 5 11 C2.69 8.03 0.38 5.06 -2 2 C-1.34 1.34 -0.68 0.68 0 0 Z " fill="#D0E1D6" transform="translate(600,455)"/>
<path d="M0 0 C0 0.33 0 0.66 0 1 C-9.41002278 3.29612756 -9.41002278 3.29612756 -14 3 C-9.85211179 -1.14788821 -5.49312659 -1.30788728 0 0 Z " fill="#40705E" transform="translate(593,529)"/>
<path d="M0 0 C0.66 0.33 1.32 0.66 2 1 C-0.64 3.64 -3.28 6.28 -6 9 C-6 6 -6 6 -3.5625 3.375 C-2.716875 2.59125 -1.87125 1.8075 -1 1 C-0.67 0.67 -0.34 0.34 0 0 Z " fill="#DAE5DC" transform="translate(788,479)"/>
<path d="M0 0 C2.12508244 3.18762365 2.5020163 5.26512223 3 9 C2.01 9.33 1.02 9.66 0 10 C0 6.7 0 3.4 0 0 Z " fill="#CFDED2" transform="translate(690,464)"/>
<path d="M0 0 C2.97 0 5.94 0 9 0 C9 0.66 9 1.32 9 2 C7.35 2.66 5.7 3.32 4 4 C3.67 3.34 3.34 2.68 3 2 C2.01 1.34 1.02 0.68 0 0 Z " fill="#CEDAD2" transform="translate(462,423)"/>
</svg>
