<?xml version="1.0" encoding="UTF-8"?>
<svg version="1.1" xmlns="http://www.w3.org/2000/svg" width="612" height="408">
<path d="M0 0 C1.1446875 -0.01675781 2.289375 -0.03351563 3.46875 -0.05078125 C6.5 0.3125 6.5 0.3125 8.42578125 1.6015625 C10.22828737 4.47246315 9.15812185 7.14154924 8.5 10.3125 C9.21542969 10.32667969 9.93085938 10.34085938 10.66796875 10.35546875 C25.2307782 11.05252431 36.35133923 16.58908639 46.25 27.125 C51.80391496 33.76134851 56.5 42.55647344 56.5 51.3125 C57.82 51.3125 59.14 51.3125 60.5 51.3125 C62.83991708 54.96862044 62.87437949 58.04457376 62.5 62.3125 C59.3620193 68.75781274 53.65315453 71.61604196 47.1953125 74.25390625 C45.77291457 74.73731907 44.34015532 75.19162466 42.89746094 75.6105957 C41.35191165 76.06308595 39.81246116 76.5372403 38.28173828 77.03759766 C31.86363521 79.10185275 25.56389214 80.22559168 18.875 81 C17.79395996 81.12592529 16.71291992 81.25185059 15.59912109 81.3815918 C-2.15103105 83.28385378 -19.8392921 82.83803535 -37.5 80.3125 C-38.51578125 80.168125 -39.5315625 80.02375 -40.578125 79.875 C-46.17418307 78.91371395 -51.61461277 77.27110735 -56.5 74.3125 C-58.5 71.3125 -58.5 71.3125 -58.625 67.875 C-57.5 64.3125 -57.5 64.3125 -55.75 62.96875 C-52.49402978 61.29288297 -50.20008421 60.3125 -46.5 60.3125 C-46.52320313 59.70664063 -46.54640625 59.10078125 -46.5703125 58.4765625 C-46.85798462 45.12035671 -43.60888133 34.42946823 -34.3125 24.5 C-26.93585784 17.56892683 -17.89026427 13.77528726 -8.5 10.3125 C-9.16 9.6525 -9.82 8.9925 -10.5 8.3125 C-10.3125 5.3125 -10.3125 5.3125 -9.5 2.3125 C-5.94223788 -0.05934142 -4.21979393 0.01425606 0 0 Z M-2.5 15.3125 C-2.17 15.9725 -1.84 16.6325 -1.5 17.3125 C1.47100244 17.74801126 1.47100244 17.74801126 5 17.875 C10.53463463 18.19191159 15.99736433 18.6483888 21.5 19.3125 C17.72705879 15.53955879 12.13864856 15.3712856 7.015625 15.1875 C3.84120244 15.1875 0.67310757 15.22422189 -2.5 15.3125 Z M-18.5 22.3125 C-25.58749687 24.94970814 -30.68067244 30.06868039 -33.9375 36.8125 C-35.55935102 40.83607082 -35.86602567 44.01169844 -35.5 48.3125 C-34.18 48.3125 -32.86 48.3125 -31.5 48.3125 C-31.17386719 47.50425781 -30.84773438 46.69601563 -30.51171875 45.86328125 C-29.85623047 44.26033203 -29.85623047 44.26033203 -29.1875 42.625 C-28.75824219 41.56925781 -28.32898438 40.51351562 -27.88671875 39.42578125 C-25.77184624 34.67774353 -23.28140377 30.86160986 -19.8125 27 C-19.18988281 26.30261719 -18.56726563 25.60523438 -17.92578125 24.88671875 C-17.45527344 24.36722656 -16.98476562 23.84773438 -16.5 23.3125 C-17.16 22.9825 -17.82 22.6525 -18.5 22.3125 Z M28.75 64.75 C27.76515625 65.03746094 26.7803125 65.32492188 25.765625 65.62109375 C25.01796875 65.84925781 24.2703125 66.07742187 23.5 66.3125 C27.15857532 67.62784494 29.58026481 66.96718309 33.25 65.875 C34.23484375 65.58753906 35.2196875 65.30007812 36.234375 65.00390625 C37.35585937 64.66166016 37.35585937 64.66166016 38.5 64.3125 C34.84142468 62.99715506 32.41973519 63.65781691 28.75 64.75 Z M12.046875 67.8125 C7.15779873 68.50170899 2.34499942 68.43513233 -2.5859375 68.41015625 C-3.64285797 68.4087413 -4.69977844 68.40732635 -5.78872681 68.40586853 C-9.15084716 68.4002894 -12.51289991 68.38774069 -15.875 68.375 C-18.16015529 68.36998231 -20.44531162 68.36541987 -22.73046875 68.36132812 C-28.3203354 68.35032679 -33.91016287 68.33360944 -39.5 68.3125 C-36.48598076 69.89609163 -34.33794403 70.59830215 -30.921875 70.76171875 C-30.01985352 70.80578857 -29.11783203 70.8498584 -28.18847656 70.89526367 C-26.73393066 70.94710815 -26.73393066 70.94710815 -25.25 71 C-24.24163086 71.03907471 -23.23326172 71.07814941 -22.19433594 71.1184082 C-14.70121372 71.35611068 -7.24062271 71.28660082 0.25 71 C1.21196289 70.96543701 2.17392578 70.93087402 3.16503906 70.89526367 C9.73889822 70.58387634 16.05610797 69.63711258 22.5 68.3125 C22.5 67.9825 22.5 67.6525 22.5 67.3125 C21.30375 67.291875 20.1075 67.27125 18.875 67.25 C18.20210937 67.23839844 17.52921875 67.22679687 16.8359375 67.21484375 C14.46491665 67.25210705 14.46491665 67.25210705 12.046875 67.8125 Z " fill="#50907B" transform="translate(198.5,148.6875)"/>
<path d="M0 0 C2.33991708 3.65612044 2.37437949 6.73207376 2 11 C-1.1379807 17.44531274 -6.84684547 20.30354196 -13.3046875 22.94140625 C-14.72708543 23.42481907 -16.15984468 23.87912466 -17.60253906 24.2980957 C-19.14808835 24.75058595 -20.68753884 25.2247403 -22.21826172 25.72509766 C-28.63636479 27.78935275 -34.93610786 28.91309168 -41.625 29.6875 C-42.70604004 29.81342529 -43.78708008 29.93935059 -44.90087891 30.0690918 C-62.65103105 31.97135378 -80.3392921 31.52553535 -98 29 C-99.01578125 28.855625 -100.0315625 28.71125 -101.078125 28.5625 C-106.67418307 27.60121395 -112.11461277 25.95860735 -117 23 C-119.1519437 19.77208445 -119.20086443 18.71599191 -119 15 C-118.0925 14.731875 -117.185 14.46375 -116.25 14.1875 C-113.04917703 13.22909297 -113.04917703 13.22909297 -111.08984375 11.38671875 C-109 10 -109 10 -106.73828125 10.0390625 C-105.93777344 10.23242188 -105.13726562 10.42578125 -104.3125 10.625 C-103.44496094 10.83125 -102.57742187 11.0375 -101.68359375 11.25 C-97.73488252 12.35356995 -93.85448657 13.6034469 -90 15 C-90 15.33 -90 15.66 -90 16 C-92.31 16.33 -94.62 16.66 -97 17 C-93.08753734 20.91246266 -78.34331073 18.92989022 -73 19 C-50.14581058 18.93714663 -50.14581058 18.93714663 -28 14 C-26.21068785 13.45060556 -24.41914661 12.90839494 -22.625 12.375 C-21.75101562 12.11460937 -20.87703125 11.85421875 -19.9765625 11.5859375 C-19.32429688 11.39257812 -18.67203125 11.19921875 -18 11 C-18.99 10.01 -18.99 10.01 -20 9 C-8.30769231 -0.86538462 -8.30769231 -0.86538462 0 0 Z " fill="#456B5F" transform="translate(259,200)"/>
<path d="M0 0 C2 2 2 2 2.046875 4.58984375 C1.94890625 5.69457031 1.8509375 6.79929688 1.75 7.9375 C1.64300781 9.18917969 1.53601563 10.44085938 1.42578125 11.73046875 C0.89305176 17.23015542 0.28004057 22.72207341 -0.34106445 28.21240234 C-0.81127476 32.53199135 -1.07607503 36.70998428 -0.9375 41.0625 C-0.958125 42.361875 -0.97875 43.66125 -1 45 C-4.46923881 47.31282587 -5.92205575 47.42478586 -10 47 C-11.875 45.5 -11.875 45.5 -13 44 C-13.515625 44.495 -14.03125 44.99 -14.5625 45.5 C-17.97904264 47.60248778 -20.04648052 47.54531303 -24 47 C-26.3248821 45.53486642 -28.01370809 43.93784577 -30 42 C-30.928125 42.825 -31.85625 43.65 -32.8125 44.5 C-36.93709265 47.44853772 -40.49431764 47.66479614 -45.47265625 47.42578125 C-49.81536493 46.69416572 -51.81764075 44.63278182 -54.3125 41.1875 C-56.04033194 35.68985291 -55.0081155 30.44860609 -53.125 25.15234375 C-50.92626508 20.94573631 -47.19784685 18.09892342 -43 16 C-38.5315534 15.46448872 -35.01433847 15.50318116 -30.9375 17.5 C-28.70459551 20.38116708 -28.33220728 22.40648689 -28.58203125 26.0390625 C-29.2606791 29.22299914 -30.63049136 30.81755784 -33 33 C-36.8038349 35.34704706 -39.52586103 36.39477697 -44 36 C-43.67 36.66 -43.34 37.32 -43 38 C-38.45194365 38.17835515 -35.1205746 37.99785435 -31 36 C-30.505 36.495 -30.505 36.495 -30 37 C-29.90203125 36.41992188 -29.8040625 35.83984375 -29.703125 35.2421875 C-28.11240146 26.93202834 -24.78791286 22.306247 -18.1953125 17.1015625 C-15.35891589 15.67831723 -13.12957813 15.81276028 -10 16 C-9.95101562 14.92878906 -9.90203125 13.85757813 -9.8515625 12.75390625 C-9.77654706 11.35674361 -9.7009987 9.9596095 -9.625 8.5625 C-9.5940625 7.85544922 -9.563125 7.14839844 -9.53125 6.41992188 C-9.42719371 4.60760812 -9.22080108 2.80182012 -9 1 C-5.98675805 -0.50662097 -3.31713623 -0.17770373 0 0 Z M-40 23 C-42.50037734 25.17424117 -43.43628586 26.73045798 -44 30 C-41.49034386 29.29660434 -41.49034386 29.29660434 -39 28 C-38.11306697 25.95894361 -38.11306697 25.95894361 -38 24 C-38.66 23.67 -39.32 23.34 -40 23 Z M-16.75 26.0625 C-18.20435165 29.48022638 -18.86239453 32.28465231 -19 36 C-17.70735301 37.96431405 -17.70735301 37.96431405 -16 39 C-11.80031099 34.24035245 -10 30.38380544 -10 24 C-13.35787178 23.54623354 -14.49265086 23.4020528 -16.75 26.0625 Z " fill="#5A9C86" transform="translate(398,168)"/>
<path d="M0 0 C6.15234375 -0.09765625 6.15234375 -0.09765625 8 0 C8.495 0.495 8.495 0.495 9 1 C8.92943032 2.85331227 8.78713369 4.7039286 8.6171875 6.55078125 C8.17735986 11.69170596 7.82918917 16.82767521 7.5703125 21.98046875 C7.45968866 24.02553888 7.34732324 26.07050863 7.23486328 28.11547852 C7.16058944 29.51628324 7.09105368 30.91734597 7.02587891 32.31860352 C6.92889381 34.37350483 6.8138637 36.42671382 6.6953125 38.48046875 C6.63359863 39.68598389 6.57188477 40.89149902 6.50830078 42.13354492 C6.34056152 43.0794751 6.17282227 44.02540527 6 45 C3 47 3 47 -0.5 46.8125 C-4.1426758 45.96687883 -4.76633333 45.75049912 -7 43 C-8.05830249 41.11489869 -9.05296979 39.19338491 -10 37.25 C-10.495 36.24453125 -10.99 35.2390625 -11.5 34.203125 C-13.07942587 30.83039268 -14.55182037 27.43080649 -16 24 C-16.02505615 24.6612085 -16.0501123 25.32241699 -16.07592773 26.00366211 C-16.19153102 28.98182305 -16.31441754 31.9596392 -16.4375 34.9375 C-16.47681641 35.97841797 -16.51613281 37.01933594 -16.55664062 38.09179688 C-16.59853516 39.08115234 -16.64042969 40.07050781 -16.68359375 41.08984375 C-16.73858032 42.46450806 -16.73858032 42.46450806 -16.79467773 43.86694336 C-17 46 -17 46 -18 47 C-21.4375 47.1875 -21.4375 47.1875 -25 47 C-27 45 -27 45 -27.22167969 42.4597168 C-27.09348707 34.22836827 -26.7931269 26.0272944 -26.25 17.8125 C-26.188125 16.60013672 -26.12625 15.38777344 -26.0625 14.13867188 C-25.98515625 12.98560547 -25.9078125 11.83253906 -25.828125 10.64453125 C-25.7652832 9.60659424 -25.70244141 8.56865723 -25.63769531 7.49926758 C-25 5 -25 5 -23.07324219 3.66333008 C-19.49657779 2.51898279 -16.49388185 2.56772545 -13 4 C-11.10413245 6.8167175 -10.13073814 8.86583785 -9 12 C-8.55527344 13.12921875 -8.11054688 14.2584375 -7.65234375 15.421875 C-6.40509698 18.60426508 -5.19157178 21.79642996 -4 25 C-2.05681101 21.11362202 -2.6237456 16.05922525 -2.48242188 11.74023438 C-2.29497644 7.42191587 -1.97426756 3.94054212 0 0 Z " fill="#5E9E89" transform="translate(292,168)"/>
<path d="M0 0 C16.68375565 2.25349306 29.68100731 6.73285582 40.8125 20.19140625 C45.3803874 26.5750289 49 34.07090894 49 42 C48.25234375 42.39832031 47.5046875 42.79664063 46.734375 43.20703125 C45.74953125 43.73683594 44.7646875 44.26664063 43.75 44.8125 C42.28820312 45.59560547 42.28820312 45.59560547 40.796875 46.39453125 C38.36644588 47.78965188 36.19212301 49.26195961 34 51 C35.32 51.66 36.64 52.32 38 53 C33.3209435 54.43236423 28.86812158 55.3689472 24 56 C22.33065717 56.31966139 20.6626783 56.64731066 19 57 C19 57.66 19 58.32 19 59 C15.37 58.67 11.74 58.34 8 58 C8 57.34 8 56.68 8 56 C9.64453125 54.921875 9.64453125 54.921875 11.8125 53.75 C15.78413422 51.31781338 17.63385196 49.61074962 19 45 C19.55685571 38.88371595 19.21921416 33.76995682 17 28 C17.33 27.34 17.66 26.68 18 26 C19.65 26.33 21.3 26.66 23 27 C23.495 28.98 23.495 28.98 24 31 C24.99 31 25.98 31 27 31 C27 29.35 27 27.7 27 26 C27.99 26 28.98 26 30 26 C30 25.34 30 24.68 30 24 C27.35261084 22.5393715 26.10551666 22 23 22 C22.505 19.525 22.505 19.525 22 17 C21.01 17 20.02 17 19 17 C18.87625 16.360625 18.7525 15.72125 18.625 15.0625 C18.41875 14.381875 18.2125 13.70125 18 13 C17.34 12.67 16.68 12.34 16 12 C16 11.34 16 10.68 16 10 C7.65932321 7.86101998 -0.39691968 6.44953032 -9 6 C-9 5.67 -9 5.34 -9 5 C-3.555 4.505 -3.555 4.505 2 4 C1.34 2.68 0.68 1.36 0 0 Z " fill="#58A189" transform="translate(206,158)"/>
<path d="M0 0 C1 1 1 1 1.1328125 2.85546875 C1.13023437 3.62503906 1.12765625 4.39460937 1.125 5.1875 C1.12886719 6.32251953 1.12886719 6.32251953 1.1328125 7.48046875 C1 10 1 10 0.49609375 12.83984375 C-0.06262026 16.39889597 -0.09646892 19.77429432 -0.0625 23.375 C-0.05347656 24.62023437 -0.04445313 25.86546875 -0.03515625 27.1484375 C-0.02355469 28.08945313 -0.01195312 29.03046875 0 30 C-2.97 30.33 -5.94 30.66 -9 31 C-9.33 30.01 -9.66 29.02 -10 28 C-10.845625 28.495 -11.69125 28.99 -12.5625 29.5 C-16.44314463 31.1933722 -18.81182814 31.54291117 -23 31 C-26.4114272 28.8454144 -26.92516265 27.28937108 -27.9375 23.375 C-28.42589479 17.1537806 -26.45563189 11.39139525 -23.25 6.125 C-16.04228531 -0.6822861 -9.71206363 -0.79414998 0 0 Z M-15.1875 9.9375 C-17.62058305 14.04857135 -17.36551926 17.3396295 -17 22 C-16.01 22 -15.02 22 -14 22 C-10.03865863 17.58158078 -9.89095022 13.77963845 -10 8 C-13.11273382 7.66848238 -13.11273382 7.66848238 -15.1875 9.9375 Z " fill="#569A85" transform="translate(327,184)"/>
<path d="M0 0 C3.0625 1.5 3.0625 1.5 5 4 C5.66266693 8.6386685 5.71029369 10.77064554 3.375 14.8125 C-0.07749672 17.99243119 -3.13530637 19.87838955 -7.875 20.1875 C-8.926875 20.0946875 -8.926875 20.0946875 -10 20 C-9.67 20.66 -9.34 21.32 -9 22 C-4.52572076 22.08948558 -0.39436211 21.85743651 4 21 C4.33 22.32 4.66 23.64 5 25 C-0.80645695 29.92286568 -3.52979354 31.35632061 -11.296875 31.28515625 C-14.94474364 30.90033774 -16.62320018 29.76015463 -19 27 C-21.67581858 23.43224189 -21.60209873 19.27490101 -21 15 C-19.12901583 8.62164486 -16.42824533 4.77617067 -11 1 C-7.52559064 -0.73720468 -3.79855595 -0.45189717 0 0 Z M-6 7 C-8.97675459 10.09327895 -8.97675459 10.09327895 -10 14 C-7.49034386 13.29660434 -7.49034386 13.29660434 -5 12 C-4.11306697 9.95894361 -4.11306697 9.95894361 -4 8 C-4.66 7.67 -5.32 7.34 -6 7 Z " fill="#936B51" transform="translate(466,184)"/>
<path d="M0 0 C2.33991708 3.65612044 2.37437949 6.73207376 2 11 C-1.15426002 17.47874994 -6.9326134 20.37564433 -13.4453125 22.9765625 C-15.61739113 23.70549736 -17.80212245 24.35432002 -20 25 C-20.94875 25.391875 -21.8975 25.78375 -22.875 26.1875 C-27.56140258 27.40596467 -32.18510182 27.15421382 -37 27 C-36.34 25.35 -35.68 23.7 -35 22 C-36.32 22.33 -37.64 22.66 -39 23 C-39 22.01 -39 21.02 -39 20 C-39.66 20 -40.32 20 -41 20 C-41 19.34 -41 18.68 -41 18 C-41.66 17.67 -42.32 17.34 -43 17 C-42.12988281 16.92652344 -42.12988281 16.92652344 -41.2421875 16.8515625 C-36.53219903 16.40077152 -32.46366258 15.63971278 -28 14 C-26.21101447 13.44954291 -24.41912803 12.90845742 -22.625 12.375 C-21.75101563 12.11460937 -20.87703125 11.85421875 -19.9765625 11.5859375 C-19.32429688 11.39257812 -18.67203125 11.19921875 -18 11 C-18.66 10.34 -19.32 9.68 -20 9 C-8.30769231 -0.86538462 -8.30769231 -0.86538462 0 0 Z " fill="#3F6458" transform="translate(259,200)"/>
<path d="M0 0 C6.15234375 -0.09765625 6.15234375 -0.09765625 8 0 C8.33 0.33 8.66 0.66 9 1 C8.92943032 2.85331227 8.78713369 4.7039286 8.6171875 6.55078125 C8.17735986 11.69170596 7.82918917 16.82767521 7.5703125 21.98046875 C7.45968866 24.02553888 7.34732324 26.07050863 7.23486328 28.11547852 C7.16058944 29.51628324 7.09105368 30.91734597 7.02587891 32.31860352 C6.92889381 34.37350483 6.8138637 36.42671382 6.6953125 38.48046875 C6.63359863 39.68598389 6.57188477 40.89149902 6.50830078 42.13354492 C6.34056152 43.0794751 6.17282227 44.02540527 6 45 C3 47 3 47 -0.5 46.8125 C-4.15622551 45.96373336 -4.75864111 45.76041042 -7 43 C-8.14463245 41.0132451 -9.22358872 38.98783128 -10.25 36.9375 C-10.79140625 35.87402344 -11.3328125 34.81054688 -11.890625 33.71484375 C-12.25671875 32.81894531 -12.6228125 31.92304688 -13 31 C-12.67 30.34 -12.34 29.68 -12 29 C-10.35 29.33 -8.7 29.66 -7 30 C-6.855625 29.4225 -6.71125 28.845 -6.5625 28.25 C-6.04166667 26.16666667 -5.52083333 24.08333333 -5 22 C-4.67 22.99 -4.34 23.98 -4 25 C-2.05681101 21.11362202 -2.6237456 16.05922525 -2.48242188 11.74023438 C-2.29497644 7.42191587 -1.97426756 3.94054212 0 0 Z M-10 31 C-9.34 31.66 -8.68 32.32 -8 33 C-7.67 32.34 -7.34 31.68 -7 31 C-7.99 31 -8.98 31 -10 31 Z " fill="#64A28E" transform="translate(292,168)"/>
<path d="M0 0 C1.86328125 2.53515625 1.86328125 2.53515625 3 5 C2 7 2 7 0 9 C-2.75372909 9.36933645 -5.20365661 9.18336678 -8 9 C-7.02546875 9.70962891 -7.02546875 9.70962891 -6.03125 10.43359375 C0.50115473 15.60508083 0.50115473 15.60508083 1.84375 19.359375 C2.06725401 22.68958479 1.76146935 24.9403501 -0.20703125 27.6796875 C-4.50342811 31.3802337 -8.96222499 31.53083762 -14.44921875 31.46875 C-17.40374638 30.92580465 -18.84675932 30.0736752 -21 28 C-21.375 25.4375 -21.375 25.4375 -21 23 C-20.34 22.34 -19.68 21.68 -19 21 C-16.6875 21.3125 -16.6875 21.3125 -14 22 C-13.071875 22.185625 -12.14375 22.37125 -11.1875 22.5625 C-10.465625 22.706875 -9.74375 22.85125 -9 23 C-9.721875 22.278125 -10.44375 21.55625 -11.1875 20.8125 C-12.115625 19.884375 -13.04375 18.95625 -14 18 C-14.9075 17.154375 -15.815 16.30875 -16.75 15.4375 C-19.90566038 12.01886792 -19.90566038 12.01886792 -20 9 C-19.23603426 5.60459672 -18.12705629 4.1237127 -15.625 1.6875 C-10.61161799 -0.64631576 -5.43258947 -1.26211675 0 0 Z " fill="#997157" transform="translate(443,184)"/>
<path d="M0 0 C1.34967827 5.69192569 0.77920175 10.96710913 0.3125 16.75 C0.24611328 17.79671875 0.17972656 18.8434375 0.11132812 19.921875 C-0.59048597 28.76362742 -2.58684347 36.73855154 -9.3515625 42.90234375 C-12.19657166 44.79676928 -14.64442418 45.06331275 -18 45 C-19.9375 43.5625 -19.9375 43.5625 -21 42 C-19.8864663 39.16555058 -19.19669757 38.11745921 -16.52734375 36.5234375 C-12.68705481 32.68908409 -12.77263063 28.62221154 -12.25 23.375 C-12.13785156 22.42753906 -12.02570313 21.48007813 -11.91015625 20.50390625 C-11.4696503 16.71555512 -11.0630282 12.93555502 -10.80664062 9.12988281 C-10.74154297 8.23366211 -10.67644531 7.33744141 -10.609375 6.4140625 C-10.56264648 5.61178223 -10.51591797 4.80950195 -10.46777344 3.98291016 C-9.25188418 -1.17129262 -4.21175331 -0.15893409 0 0 Z " fill="#52967F" transform="translate(342,184)"/>
<path d="M0 0 C0.3221077 6.03653699 0.56806924 10.83245145 -3 16 C-7.95608634 20.47256572 -10.92862693 21.32147892 -17.46484375 21.19921875 C-21.10492413 20.91317237 -23.0848487 20.23720914 -26 18 C-29.67319237 13.03095992 -31.30622556 9.24159737 -31 3 C-29.81664062 3.03480469 -28.63328125 3.06960937 -27.4140625 3.10546875 C-15.93198528 3.38490695 -15.93198528 3.38490695 -4.84765625 0.65625 C-3 0 -3 0 0 0 Z " fill="#24463A" transform="translate(226,193)"/>
<path d="M0 0 C0.25730547 7.29032177 -0.11536431 14.44141156 -0.875 21.6875 C-0.95347168 22.48978027 -1.03194336 23.29206055 -1.11279297 24.11865234 C-1.33378612 26.08892714 -1.65797756 28.04709412 -2 30 C-4.98212913 31.49106457 -7.71609658 31.11941467 -11 31 C-12 30 -12 30 -12.1328125 27.078125 C-12.11565518 18.67103906 -11.79117109 10.37793675 -11 2 C-7.17010894 0.19769832 -4.21878192 -0.19622241 0 0 Z " fill="#61A08C" transform="translate(412,184)"/>
<path d="M0 0 C4.29 0 8.58 0 13 0 C13.1255449 8.28596338 13.1255449 8.28596338 12.5 11.84375 C11.93630939 15.40204698 11.90353125 18.77431213 11.9375 22.375 C11.95103516 24.24285156 11.95103516 24.24285156 11.96484375 26.1484375 C11.97644531 27.08945313 11.98804688 28.03046875 12 29 C9.03 29.33 6.06 29.66 3 30 C2.67 28.35 2.34 26.7 2 25 C0.68 24.67 -0.64 24.34 -2 24 C-0.47945205 18.42465753 -0.47945205 18.42465753 2.1875 16.0625 C4.39194305 14.0116184 4.39194305 14.0116184 4 10.4375 C3.30313797 6.95566176 3.30313797 6.95566176 0.9375 5.0625 C0.298125 4.711875 -0.34125 4.36125 -1 4 C-0.67 2.68 -0.34 1.36 0 0 Z " fill="#589B86" transform="translate(315,185)"/>
<path d="M0 0 C1 3 1 3 0.22265625 5.04296875 C-0.35162109 6.10451172 -0.35162109 6.10451172 -0.9375 7.1875 C-1.50791016 8.26064453 -1.50791016 8.26064453 -2.08984375 9.35546875 C-2.39019531 9.89816406 -2.69054687 10.44085938 -3 11 C-14.52992873 11.24020685 -25.59556312 10.74018655 -37 9 C-37 7.68 -37 6.36 -37 5 C-30.23080137 2.69687029 -23.33505708 2.11130498 -16.25 1.375 C-15.01894531 1.2409375 -13.78789062 1.106875 -12.51953125 0.96875 C-3.49433992 0 -3.49433992 0 0 0 Z " fill="#CECDCC" transform="translate(151,185)"/>
<path d="M0 0 C0.80050781 0.19335938 1.60101563 0.38671875 2.42578125 0.5859375 C3.29332031 0.7921875 4.16085938 0.9984375 5.0546875 1.2109375 C9.00339873 2.31450745 12.88379468 3.5643844 16.73828125 4.9609375 C16.73828125 5.2909375 16.73828125 5.6209375 16.73828125 5.9609375 C14.42828125 6.2909375 12.11828125 6.6209375 9.73828125 6.9609375 C12.04828125 7.6209375 14.35828125 8.2809375 16.73828125 8.9609375 C16.73828125 9.2909375 16.73828125 9.6209375 16.73828125 9.9609375 C16.01640625 10.0228125 15.29453125 10.0846875 14.55078125 10.1484375 C11.52430757 10.76028539 11.52430757 10.76028539 9.42578125 13.4609375 C6.60640592 16.08361223 4.77935743 16.89744925 0.93359375 17.16796875 C-3.1574576 16.78215786 -6.81820925 15.16135436 -10.26171875 12.9609375 C-12.41366245 9.73302195 -12.46258318 8.67692941 -12.26171875 4.9609375 C-11.35421875 4.6928125 -10.44671875 4.4246875 -9.51171875 4.1484375 C-6.31089578 3.19003047 -6.31089578 3.19003047 -4.3515625 1.34765625 C-2.26171875 -0.0390625 -2.26171875 -0.0390625 0 0 Z " fill="#3E6357" transform="translate(152.26171875,210.0390625)"/>
<path d="M0 0 C1.1446875 -0.01675781 2.289375 -0.03351563 3.46875 -0.05078125 C6.5 0.3125 6.5 0.3125 8.39453125 1.6796875 C9.94387663 3.9681199 9.69885539 5.59480969 9.5 8.3125 C9.2018576 12.0888932 9.2018576 12.0888932 10.5 14.3125 C6.21 14.3125 1.92 14.3125 -2.5 14.3125 C-2.83 14.9725 -3.16 15.6325 -3.5 16.3125 C-5.14363134 17.03409424 -6.81050386 17.70601421 -8.5 18.3125 C-8.83 17.6525 -9.16 16.9925 -9.5 16.3125 C-11.8140622 15.58174352 -14.14828869 14.91111742 -16.5 14.3125 C-14.03721199 11.84971199 -11.79323018 11.31478745 -8.5 10.3125 C-9.16 9.6525 -9.82 8.9925 -10.5 8.3125 C-10.3125 5.3125 -10.3125 5.3125 -9.5 2.3125 C-5.94223788 -0.05934142 -4.21979393 0.01425606 0 0 Z " fill="#568E7B" transform="translate(198.5,148.6875)"/>
<path d="M0 0 C12.2311911 1.65208031 24.19396314 3.49604879 33 13 C32.01 13.33 31.02 13.66 30 14 C29.34 14.66 28.68 15.32 28 16 C27.34 15.67 26.68 15.34 26 15 C26.99 15.99 27.98 16.98 29 18 C28.67 18.66 28.34 19.32 28 20 C26.53515625 18.69791667 25.0703125 17.39583333 23.60546875 16.09375 C21.910552 14.71848759 21.910552 14.71848759 19 15 C17.3125 13.625 17.3125 13.625 16 12 C16 11.34 16 10.68 16 10 C7.65932321 7.86101998 -0.39691968 6.44953032 -9 6 C-9 5.67 -9 5.34 -9 5 C-3.555 4.505 -3.555 4.505 2 4 C1.34 2.68 0.68 1.36 0 0 Z " fill="#5F9985" transform="translate(206,158)"/>
<path d="M0 0 C1 1 2 2 3 3 C3.66 3 4.32 3 5 3 C5.33 2.34 5.66 1.68 6 1 C6.66 1 7.32 1 8 1 C8 1.99 8 2.98 8 4 C9.65 3.67 11.3 3.34 13 3 C12.690625 3.598125 12.38125 4.19625 12.0625 4.8125 C10.89790296 7.08956772 10.89790296 7.08956772 10 10 C9.34 10 8.68 10 8 10 C9.70892499 13.31460705 9.70892499 13.31460705 13.125 13.6875 C14.07375 13.790625 15.0225 13.89375 16 14 C16 15.65 16 17.3 16 19 C9.375 19.25 9.375 19.25 6 17 C5.67 17.66 5.34 18.32 5 19 C1.69866765 18.7323244 0.37496702 18.4396165 -1.8125 15.875 C-3.66097288 11.39974988 -3.55570256 7.70415453 -2.0625 3.125 C-1 1 -1 1 0 0 Z " fill="#569884" transform="translate(346,194)"/>
<path d="M0 0 C0.61359375 0.39058594 1.2271875 0.78117188 1.859375 1.18359375 C2.519375 1.51359375 3.179375 1.84359375 3.859375 2.18359375 C3.529375 4.16359375 3.199375 6.14359375 2.859375 8.18359375 C0.36872612 8.8706693 -1.51948792 9.18359375 -4.140625 9.18359375 C-10.28547076 11.91463631 -14.49382565 17.71339472 -18.140625 23.18359375 C-18.140625 20.87359375 -18.140625 18.56359375 -18.140625 16.18359375 C-19.790625 16.84359375 -21.440625 17.50359375 -23.140625 18.18359375 C-23.140625 18.84359375 -23.140625 19.50359375 -23.140625 20.18359375 C-23.800625 19.85359375 -24.460625 19.52359375 -25.140625 19.18359375 C-20.91275326 13.01794747 -8.76296039 -3.34207796 0 0 Z " fill="#619484" transform="translate(182.140625,163.81640625)"/>
<path d="M0 0 C0.33 0 0.66 0 1 0 C1 3.96 1 7.92 1 12 C1.66 12 2.32 12 3 12 C2.67 12.66 2.34 13.32 2 14 C2.33 14.33 2.66 14.66 3 15 C2.01 15.495 2.01 15.495 1 16 C1 16.66 1 17.32 1 18 C2.98 17.67 4.96 17.34 7 17 C7.66 14.36 8.32 11.72 9 9 C9.33 9 9.66 9 10 9 C10.53667574 16.37929149 9.02332774 21.83530069 4.64453125 27.8671875 C1.96264114 30.87263003 0.27157381 31.92174992 -3.6875 33.0625 C-7 33 -7 33 -8.9375 31.5625 C-9.4634375 30.7890625 -9.4634375 30.7890625 -10 30 C-8.8870319 27.1669903 -8.21744915 26.12661596 -5.53125 24.5625 C-1.60539011 20.5881727 -1.72534244 16.14897889 -1.1875 10.75 C-1.06697266 9.71875 -0.94644531 8.6875 -0.82226562 7.625 C-0.52827107 5.08488708 -0.25499899 2.54427388 0 0 Z " fill="#5F9E8B" transform="translate(331,196)"/>
<path d="M0 0 C0.33 0 0.66 0 1 0 C1 1.65 1 3.3 1 5 C3.64 4.34 6.28 3.68 9 3 C9.02683697 6.14588944 9.04675902 9.29155271 9.0625 12.4375 C9.07087891 13.33533203 9.07925781 14.23316406 9.08789062 15.15820312 C9.09111328 16.01220703 9.09433594 16.86621094 9.09765625 17.74609375 C9.10289307 18.53685303 9.10812988 19.3276123 9.11352539 20.14233398 C9 22 9 22 8 23 C5.66702567 23.04092937 3.33294775 23.04241723 1 23 C0.67 21.02 0.34 19.04 0 17 C-0.99 16.67 -1.98 16.34 -3 16 C-2.01 15.67 -1.02 15.34 0 15 C-0.33 14.01 -0.66 13.02 -1 12 C-1.1544533 7.82976082 -0.98388771 4.05853682 0 0 Z " fill="#609E8B" transform="translate(388,191)"/>
<path d="M0 0 C2.475 0.99 2.475 0.99 5 2 C5.66 1.34 6.32 0.68 7 0 C10.05542525 0.17914545 11.59598107 0.64710183 13.9140625 2.671875 C20.72881356 10.94915254 20.72881356 10.94915254 22 14 C21.1875 16.3125 21.1875 16.3125 20 18 C19.67 16.02 19.34 14.04 19 12 C17.68 11.67 16.36 11.34 15 11 C14.67 11.66 14.34 12.32 14 13 C13.01 13.66 12.02 14.32 11 15 C8.80273438 13.046875 8.80273438 13.046875 6.60546875 11.09375 C4.910552 9.71848759 4.910552 9.71848759 2 10 C1.34 9.67 0.68 9.34 0 9 C-0.625 6.4375 -0.625 6.4375 -1 4 C-1.99 4 -2.98 4 -4 4 C-3.67 3.01 -3.34 2.02 -3 1 C-0.33333333 2.33333333 2.33333333 3.66666667 5 5 C3.35 3.35 1.7 1.7 0 0 Z " fill="#5BA38D" transform="translate(229,171)"/>
<path d="M0 0 C4.49692378 -0.3526999 7.94895266 -0.5147987 12.0625 1.5 C14.29540449 4.38116708 14.66779272 6.40648689 14.41796875 10.0390625 C13.7393209 13.22299914 12.36950864 14.81755784 10 17 C6.1961651 19.34704706 3.47413897 20.39477697 -1 20 C-1.33 20.66 -1.66 21.32 -2 22 C-2.66 21.01 -3.32 20.02 -4 19 C-3.01 18.01 -2.02 17.02 -1 16 C-1.66 14.68 -2.32 13.36 -3 12 C-1.33333333 12 0.33333333 12 2 12 C2.66 11.67 3.32 11.34 4 11 C4 9.68 4 8.36 4 7 C4.66 7 5.32 7 6 7 C6 7.99 6 8.98 6 10 C9.72614153 8.88145414 9.72614153 8.88145414 12 6 C11.34 6 10.68 6 10 6 C9.835 5.360625 9.67 4.72125 9.5 4.0625 C8.218214 1.83880759 8.218214 1.83880759 6.0859375 1.51171875 C4.06424845 1.2724022 2.03158061 1.13106972 0 1 C0 0.67 0 0.34 0 0 Z " fill="#A88874" transform="translate(457,184)"/>
<path d="M0 0 C0.32712342 6.13053511 0.39366878 10.62669111 -3 16 C-7.875 13.375 -7.875 13.375 -9 10 C-9.99 9.67 -10.98 9.34 -12 9 C-11.67 8.01 -11.34 7.02 -11 6 C-17.93 5.505 -17.93 5.505 -25 5 C-25 4.67 -25 4.34 -25 4 C-23.24623047 3.81824219 -23.24623047 3.81824219 -21.45703125 3.6328125 C-19.90881329 3.46391599 -18.36063839 3.29462432 -16.8125 3.125 C-15.65911133 3.00705078 -15.65911133 3.00705078 -14.48242188 2.88671875 C-9.51520632 2.33243719 -4.84210634 0 0 0 Z " fill="#25493C" transform="translate(226,193)"/>
<path d="M0 0 C-0.37865426 2.1961947 -0.89551817 3.83007351 -2.06640625 5.734375 C-5.14074342 7.74666842 -8.39283899 7.35154803 -11.9375 7.25 C-13.01161133 7.24226562 -13.01161133 7.24226562 -14.10742188 7.234375 C-17.52856533 7.18364442 -20.7297906 7.05876231 -24 6 C-24 5.01 -24 4.02 -24 3 C-15.8390222 0.56907044 -8.50922528 -0.40735653 0 0 Z " fill="#CFCECC" transform="translate(157,177)"/>
<path d="M0 0 C1.25425781 0.02707031 2.50851562 0.05414063 3.80078125 0.08203125 C4.75339844 0.11683594 5.70601563 0.15164062 6.6875 0.1875 C6.6875 0.5175 6.6875 0.8475 6.6875 1.1875 C2.7275 1.1875 -1.2325 1.1875 -5.3125 1.1875 C-4.9825 2.8375 -4.6525 4.4875 -4.3125 6.1875 C-3.3225 6.8475 -2.3325 7.5075 -1.3125 8.1875 C-0.4375 11.5625 -0.4375 11.5625 -0.3125 15.1875 C-1.75 17.625 -1.75 17.625 -3.3125 19.1875 C-3.9725 18.8575 -4.6325 18.5275 -5.3125 18.1875 C-4.6525 14.8875 -3.9925 11.5875 -3.3125 8.1875 C-6.54725448 9.80487724 -8.01822021 10.66379223 -10.3125 13.1875 C-11.3025 12.5275 -12.2925 11.8675 -13.3125 11.1875 C-12.9825 10.5275 -12.6525 9.8675 -12.3125 9.1875 C-12.93125 9.6825 -13.55 10.1775 -14.1875 10.6875 C-16.3125 12.1875 -16.3125 12.1875 -18.3125 12.1875 C-17.8373459 7.91111306 -15.43366265 5.95398508 -12.3125 3.1875 C-8.13869662 0.09579379 -5.14294497 -0.14419472 0 0 Z " fill="#619F8D" transform="translate(320.3125,183.8125)"/>
<path d="M0 0 C0.75410156 0.00322266 1.50820312 0.00644531 2.28515625 0.00976562 C3.06246094 0.01814453 3.83976563 0.02652344 4.640625 0.03515625 C5.43339844 0.03966797 6.22617188 0.04417969 7.04296875 0.04882812 C8.99222008 0.0605706 10.94143238 0.07850479 12.890625 0.09765625 C13.015625 2.47265625 13.015625 2.47265625 12.890625 5.09765625 C10.890625 7.09765625 10.890625 7.09765625 7.1171875 7.14453125 C5.5826608 7.05661566 4.04876197 6.95716603 2.515625 6.84765625 C1.36320313 6.78771484 1.36320313 6.78771484 0.1875 6.7265625 C-3.65988532 6.48027659 -6.79243827 6.26164706 -10.109375 4.09765625 C-8.109375 1.09765625 -8.109375 1.09765625 -6.24121094 0.41625977 C-4.12197327 0.09953907 -2.14180884 -0.01622582 0 0 Z " fill="#CCCAC8" transform="translate(134.109375,199.90234375)"/>
<path d="M0 0 C2 3 2 3 2 6 C1.01 6.495 1.01 6.495 0 7 C0.66 7.33 1.32 7.66 2 8 C2.625 11.0625 2.625 11.0625 3 14 C4.65 14 6.3 14 8 14 C8 14.33 8 14.66 8 15 C2.46153846 15.36923077 2.46153846 15.36923077 0.125 13.5 C-0.24625 13.005 -0.6175 12.51 -1 12 C-1.515625 12.495 -2.03125 12.99 -2.5625 13.5 C-5.85639847 15.52701444 -8.20122401 15.35173852 -12 15 C-12.66 14.34 -13.32 13.68 -14 13 C-13.67 12.34 -13.34 11.68 -13 11 C-12.34 11 -11.68 11 -11 11 C-11.33 9.35 -11.66 7.7 -12 6 C-10.68 6.33 -9.36 6.66 -8 7 C-7.34 6.01 -6.68 5.02 -6 4 C-5.34 4.66 -4.68 5.32 -4 6 C-2.68 4.02 -1.36 2.04 0 0 Z " fill="#629F8E" transform="translate(386,200)"/>
<path d="M0 0 C0 7.26 0 14.52 0 22 C-1.98 21.34 -3.96 20.68 -6 20 C-6.66 20.33 -7.32 20.66 -8 21 C-8.05441656 19.10448978 -8.09298035 17.2085208 -8.125 15.3125 C-8.14820313 14.25675781 -8.17140625 13.20101562 -8.1953125 12.11328125 C-7.99858729 8.97748141 -7.33057654 6.82354627 -6 4 C-5.67 4.66 -5.34 5.32 -5 6 C-4.67 4.35 -4.34 2.7 -4 1 C-1 0 -1 0 0 0 Z " fill="#5C9E89" transform="translate(299,174)"/>
<path d="M0 0 C0.92151651 3.68606605 1.29808979 6.9727113 1.5625 10.75 C1.68818359 12.50570312 1.68818359 12.50570312 1.81640625 14.296875 C1.87699219 15.18890625 1.93757813 16.0809375 2 17 C0.68 16.01 -0.64 15.02 -2 14 C-2.928125 14.825 -3.85625 15.65 -4.8125 16.5 C-9.56544711 19.97180293 -14.34702113 19.46000732 -20 19 C-20.33 18.34 -20.66 17.68 -21 17 C-20.34 17 -19.68 17 -19 17 C-18.67 16.01 -18.34 15.02 -18 14 C-17.46375 14.309375 -16.9275 14.61875 -16.375 14.9375 C-13.6015043 16.17827439 -10.99957163 16.5909675 -8 17 C-8 15.35 -8 13.7 -8 12 C-9.98 12 -11.96 12 -14 12 C-14 11.67 -14 11.34 -14 11 C-12.01432292 10.51171875 -10.02864583 10.0234375 -8.04296875 9.53515625 C-6.34316798 9.08989295 -4.66698046 8.55566015 -3 8 C-2.67 8.33 -2.34 8.66 -2 9 C-1.34 6.03 -0.68 3.06 0 0 Z " fill="#7DAB9B" transform="translate(370,196)"/>
<path d="M0 0 C6.15234375 -0.09765625 6.15234375 -0.09765625 8 0 C8.33 0.33 8.66 0.66 9 1 C8.90982004 3.19050021 8.75333792 5.378466 8.5625 7.5625 C8.46066406 8.76003906 8.35882813 9.95757812 8.25390625 11.19140625 C8.17011719 12.11824219 8.08632813 13.04507813 8 14 C7.67 14 7.34 14 7 14 C6.67 11.69 6.34 9.38 6 7 C5.01 7.495 5.01 7.495 4 8 C4 9.32 4 10.64 4 12 C3.01 12 2.02 12 1 12 C0.01 15.465 0.01 15.465 -1 19 C-1.33 19 -1.66 19 -2 19 C-2.05428973 16.77110504 -2.09292338 14.54182529 -2.125 12.3125 C-2.15980469 10.45044922 -2.15980469 10.45044922 -2.1953125 8.55078125 C-2.01032021 5.18762143 -1.45767895 3.0014413 0 0 Z " fill="#72A895" transform="translate(292,168)"/>
<path d="M0 0 C1.99954746 -0.04254356 4.00041636 -0.04080783 6 0 C7 1 7 1 7.09765625 3.72265625 C7.08605469 4.82480469 7.07445312 5.92695313 7.0625 7.0625 C7.05347656 8.16722656 7.04445313 9.27195313 7.03515625 10.41015625 C7.02355469 11.26480469 7.01195312 12.11945313 7 13 C4.525 12.01 4.525 12.01 2 11 C2.33 13.31 2.66 15.62 3 18 C2.01 18 1.02 18 0 18 C-2.7890625 5.25 -2.7890625 5.25 0 0 Z " fill="#519781" transform="translate(372,195)"/>
<path d="M0 0 C1.6484375 1.1015625 1.6484375 1.1015625 4.1484375 3.1015625 C1.22974024 6.51902448 -1.15328759 6.8075632 -5.48828125 7.18359375 C-9.1582049 7.05620797 -11.63085418 5.81470522 -14.8515625 4.1015625 C-13.8515625 1.1015625 -13.8515625 1.1015625 -12.2890625 -0.0859375 C-8.16227732 -1.46153256 -3.96750323 -1.92515979 0 0 Z " fill="#CA593A" transform="translate(215.8515625,204.8984375)"/>
<path d="M0 0 C1.125 2.25 1.125 2.25 2 5 C1.08659568 7.74021297 0.60070695 8.69964653 -2 10 C-7.23298969 10.44536082 -7.23298969 10.44536082 -9.9375 8.875 C-11 7 -11 7 -10.8125 3.875 C-10.544375 2.92625 -10.27625 1.9775 -10 1 C-6.78548731 -0.60725635 -3.56387464 -0.05748185 0 0 Z " fill="#79A798" transform="translate(343,172)"/>
<path d="M0 0 C1.875 -0.36328125 1.875 -0.36328125 4 -0.3125 C4.70125 -0.30863281 5.4025 -0.30476562 6.125 -0.30078125 C8 0 8 0 10 2 C9.8125 5 9.8125 5 9 8 C5.54337669 10.30441554 4.05142119 10.25860135 0 10 C-0.66 9.67 -1.32 9.34 -2 9 C-2.25 3.375 -2.25 3.375 0 0 Z " fill="#68A08E" transform="translate(404,172)"/>
<path d="M0 0 C5.7607103 1.29322068 9.33195882 3.37988643 14 7 C12.35 8.32 10.7 9.64 9 11 C8.34 10.67 7.68 10.34 7 10 C7.99 10.99 8.98 11.98 10 13 C9.67 13.66 9.34 14.32 9 15 C6.80273438 13.046875 6.80273438 13.046875 4.60546875 11.09375 C2.910552 9.71848759 2.910552 9.71848759 0 10 C-1.6875 8.625 -1.6875 8.625 -3 7 C-3 6.34 -3 5.68 -3 5 C-2.01 4.34 -1.02 3.68 0 3 C0 2.01 0 1.02 0 0 Z " fill="#77B29F" transform="translate(225,163)"/>
<path d="M0 0 C0.73605469 0.00451172 1.47210938 0.00902344 2.23046875 0.01367188 C4.02868158 0.02534858 5.82685197 0.04327989 7.625 0.0625 C7.955 0.7225 8.285 1.3825 8.625 2.0625 C-1.275 2.5575 -1.275 2.5575 -11.375 3.0625 C-11.705 3.7225 -12.035 4.3825 -12.375 5.0625 C-11.385 5.3925 -10.395 5.7225 -9.375 6.0625 C-10.365 6.5575 -10.365 6.5575 -11.375 7.0625 C-11.045 8.0525 -10.715 9.0425 -10.375 10.0625 C-14.665 9.7325 -18.955 9.4025 -23.375 9.0625 C-21.725 7.7425 -20.075 6.4225 -18.375 5.0625 C-17.735625 4.340625 -17.09625 3.61875 -16.4375 2.875 C-12.08603531 -0.94901443 -5.51983079 -0.06488047 0 0 Z " fill="#628177" transform="translate(177.375,218.9375)"/>
<path d="M0 0 C7.28358209 -0.35820896 7.28358209 -0.35820896 10 1 C11.70552828 4.41105656 11.36027104 7.21715403 11 11 C7.77208445 13.1519437 6.71599191 13.20086443 3 13 C2 11 2 11 2.5 8.625 C3.0149918 5.92129305 2.96514645 4.544477 2 2 C1.34 1.34 0.68 0.68 0 0 Z " fill="#51957F" transform="translate(358,185)"/>
<path d="M0 0 C-0.33967826 3.17033042 -0.99869191 3.99882607 -3.4375 6.1875 C-7.1973758 8.84692435 -9.04950599 9.11570342 -13.625 9.0625 C-14.62789063 9.05347656 -15.63078125 9.04445312 -16.6640625 9.03515625 C-17.43492187 9.02355469 -18.20578125 9.01195312 -19 9 C-17 7 -17 7 -13.4375 6.5 C-12.303125 6.335 -11.16875 6.17 -10 6 C-9.67 5.34 -9.34 4.68 -9 4 C-11.64 4 -14.28 4 -17 4 C-16.34 2.68 -15.68 1.36 -15 0 C-12.98177083 0.03255208 -10.96354167 0.06510417 -8.9453125 0.09765625 C-1.2242268 -0.28994845 -1.2242268 -0.28994845 0 0 Z " fill="#A68670" transform="translate(471,206)"/>
<path d="M0 0 C0.33 0.99 0.66 1.98 1 3 C1.99 3 2.98 3 4 3 C4 3.66 4 4.32 4 5 C3.34 5.66 2.68 6.32 2 7 C2 7.66 2 8.32 2 9 C2.66 9.33 3.32 9.66 4 10 C3.01 11.32 2.02 12.64 1 14 C1.66 14.66 2.32 15.32 3 16 C2.67 16.99 2.34 17.98 2 19 C0.35 19 -1.3 19 -3 19 C-3 16.69 -3 14.38 -3 12 C-2.34 12 -1.68 12 -1 12 C-1.33 11.01 -1.66 10.02 -2 9 C-2.99 8.67 -3.98 8.34 -5 8 C-5 6.35 -5 4.7 -5 3 C-4.01 2.67 -3.02 2.34 -2 2 C-1.34 1.34 -0.68 0.68 0 0 Z " fill="#91674B" transform="translate(453,190)"/>
<path d="M0 0 C1.03382813 -0.0309375 2.06765625 -0.061875 3.1328125 -0.09375 C5.875 0.5 5.875 0.5 7.7421875 3.03125 C8.30292969 4.25328125 8.30292969 4.25328125 8.875 5.5 C7.885 6.82 6.895 8.14 5.875 9.5 C3.235 9.17 0.595 8.84 -2.125 8.5 C-1.135 8.17 -0.145 7.84 0.875 7.5 C1.205 6.84 1.535 6.18 1.875 5.5 C2.205 5.17 2.535 4.84 2.875 4.5 C-0.3554854 3.12371701 -0.3554854 3.12371701 -4.125 2.5 C-6.85986777 4.23787565 -6.85986777 4.23787565 -9.125 6.5 C-11.4375 7.25 -11.4375 7.25 -13.125 7.5 C-10.82610416 1.43927461 -6.10894705 0.06124258 0 0 Z " fill="#A18069" transform="translate(437.125,183.5)"/>
<path d="M0 0 C0 3.96 0 7.92 0 12 C-0.33 12 -0.66 12 -1 12 C-1.33 10.35 -1.66 8.7 -2 7 C-2.598125 7.495 -3.19625 7.99 -3.8125 8.5 C-6 10 -6 10 -9 10 C-9.66 11.32 -10.32 12.64 -11 14 C-11 10.04 -11 6.08 -11 2 C-6 0 -6 0 0 0 Z " fill="#6FAA97" transform="translate(412,184)"/>
<path d="M0 0 C0.33 0.66 0.66 1.32 1 2 C1.99 2 2.98 2 4 2 C4.33 2.66 4.66 3.32 5 4 C7.01669827 5.13350534 7.01669827 5.13350534 9 6 C8.05125 6.20625 7.1025 6.4125 6.125 6.625 C2.70833333 7.70833333 2.70833333 7.70833333 1.625 11.125 C1.41875 12.07375 1.2125 13.0225 1 14 C0.34 12.68 -0.32 11.36 -1 10 C-3.31 10 -5.62 10 -8 10 C-6.5682479 4.98886765 -4.01554307 3.05530451 0 0 Z " fill="#72AB9A" transform="translate(379,186)"/>
<path d="M0 0 C0.33 0.66 0.66 1.32 1 2 C0.3409159 3.66967972 -0.32650839 5.33607955 -1 7 C-1 8.32 -1 9.64 -1 11 C-1 14 -1 17 -1 20 C-0.34 20.33 0.32 20.66 1 21 C-0.051875 20.7525 -1.10375 20.505 -2.1875 20.25 C-6.03445628 19.59147825 -6.03445628 19.59147825 -8.6875 21.9375 C-9.8321875 22.9584375 -9.8321875 22.9584375 -11 24 C-12.32 24 -13.64 24 -15 24 C-14.505 22.515 -14.505 22.515 -14 21 C-10.5065403 19.25327015 -7.93154432 18 -4 18 C-4.02320313 17.35933594 -4.04640625 16.71867187 -4.0703125 16.05859375 C-4.18387734 10.615593 -3.95552242 6.10608632 -2 1 C-1.34 0.67 -0.68 0.34 0 0 Z " fill="#507D6E" transform="translate(156,191)"/>
<path d="M0 0 C2 2 2 2 2.125 5.625 C2.08375 6.73875 2.0425 7.8525 2 9 C1.34 8.67 0.68 8.34 0 8 C0 6.35 0 4.7 0 3 C-1.98 3.33 -3.96 3.66 -6 4 C-6.66 7.96 -7.32 11.92 -8 16 C-14.28571429 18.42857143 -14.28571429 18.42857143 -18 17 C-15.29120665 15.64560332 -12.99066732 15.93498549 -10 16 C-9.95101563 14.92878906 -9.90203125 13.85757813 -9.8515625 12.75390625 C-9.77654706 11.35674361 -9.7009987 9.9596095 -9.625 8.5625 C-9.5940625 7.85544922 -9.563125 7.14839844 -9.53125 6.41992188 C-9.42719371 4.60760812 -9.22080108 2.80182012 -9 1 C-5.98675805 -0.50662097 -3.31713623 -0.17770373 0 0 Z " fill="#95B9AB" transform="translate(398,168)"/>
<path d="M0 0 C0.556875 0.226875 1.11375 0.45375 1.6875 0.6875 C1.0275 1.3475 0.3675 2.0075 -0.3125 2.6875 C0.3475 3.3475 1.0075 4.0075 1.6875 4.6875 C-0.3125 6.6875 -0.3125 6.6875 -2.9375 6.8125 C-3.72125 6.77125 -4.505 6.73 -5.3125 6.6875 C-5.6425 7.3475 -5.9725 8.0075 -6.3125 8.6875 C-5.6525 9.0175 -4.9925 9.3475 -4.3125 9.6875 C-7.21850261 10.94414978 -9.10854584 11.6875 -12.3125 11.6875 C-12.3125 11.0275 -12.3125 10.3675 -12.3125 9.6875 C-11.6525 9.3575 -10.9925 9.0275 -10.3125 8.6875 C-10.9725 8.0275 -11.6325 7.3675 -12.3125 6.6875 C-3.64663462 -0.49278846 -3.64663462 -0.49278846 0 0 Z " fill="#356052" transform="translate(251.3125,202.3125)"/>
<path d="M0 0 C2.34885769 2.87924492 3 4.27472933 3 8 C2.34 8 1.68 8 1 8 C0.566875 7.360625 0.13375 6.72125 -0.3125 6.0625 C-2.40849852 3.50072404 -3.78299472 3.34778436 -7 3 C-7.4021875 4.2065625 -7.4021875 4.2065625 -7.8125 5.4375 C-8.4003125 6.7059375 -8.4003125 6.7059375 -9 8 C-9.99 8.33 -10.98 8.66 -12 9 C-11.52 2.64 -11.52 2.64 -9.375 0 C-5.85025855 -1.48410166 -3.63189024 -1.05654989 0 0 Z " fill="#245042" transform="translate(199,184)"/>
<path d="M0 0 C1.5 1.3125 1.5 1.3125 3 3 C3 3.99 3 4.98 3 6 C3.66 5.67 4.32 5.34 5 5 C7 5.125 7 5.125 9 6 C10.25 8.5625 10.25 8.5625 11 11 C10.360625 11.103125 9.72125 11.20625 9.0625 11.3125 C8.381875 11.539375 7.70125 11.76625 7 12 C6.67 12.99 6.34 13.98 6 15 C5.01 14.67 4.02 14.34 3 14 C3.66 14 4.32 14 5 14 C3.92598892 11.08482708 3.22189824 9.22189824 1 7 C-1.68839385 6.73008094 -4.29141936 6.91262643 -7 7 C-5.66667905 3.00003714 -3.5042173 2.16217663 0 0 Z " fill="#549882" transform="translate(227,174)"/>
<path d="M0 0 C0.66 0 1.32 0 2 0 C2 0.99 2 1.98 2 3 C2.66 3 3.32 3 4 3 C4.625 6.375 4.625 6.375 5 10 C4.34 10.66 3.68 11.32 3 12 C1.02 11.34 -0.96 10.68 -3 10 C-3.2295711 6.63295715 -3.33943529 4.58629732 -1.625 1.625 C-1.08875 1.08875 -0.5525 0.5525 0 0 Z M0 12 C0.99 12.33 1.98 12.66 3 13 C2.01 13 1.02 13 0 13 C0 12.67 0 12.34 0 12 Z " fill="#4E967F" transform="translate(282,187)"/>
<path d="M0 0 C3.96 0 7.92 0 12 0 C12 1.98 12 3.96 12 6 C10.35 5.67 8.7 5.34 7 5 C6.67 5.66 6.34 6.32 6 7 C3.625 6.75 3.625 6.75 1 6 C-0.375 4.0625 -0.375 4.0625 -1 2 C-0.67 1.34 -0.34 0.68 0 0 Z " fill="#50967F" transform="translate(315,185)"/>
<path d="M0 0 C1.13896163 4.34492771 0.93100471 8.38620785 0.5625 12.8125 C0.51029297 13.50537109 0.45808594 14.19824219 0.40429688 14.91210938 C0.27560181 16.60854437 0.13863816 18.30434863 0 20 C-0.33 20 -0.66 20 -1 20 C-1 17.03 -1 14.06 -1 11 C-2.98 11.99 -2.98 11.99 -5 13 C-5.33 11.02 -5.66 9.04 -6 7 C-3 8 -3 8 -1 10 C-1.66 7.69 -2.32 5.38 -3 3 C-6.11785113 3.64644661 -6.11785113 3.64644661 -7 6 C-7.66 6 -8.32 6 -9 6 C-9 4.35 -9 2.7 -9 1 C-6.04335481 -0.4783226 -3.25770263 -0.06032783 0 0 Z " fill="#87B2A3" transform="translate(342,184)"/>
<path d="M0 0 C0.99 0.33 1.98 0.66 3 1 C2.67 1.66 2.34 2.32 2 3 C7.51816566 4.99593226 12.24292155 5.45392613 18 4 C18.66 3.34 19.32 2.68 20 2 C19.67 1.34 19.34 0.68 19 0 C20.32 0.33 21.64 0.66 23 1 C22.70926678 3.81042113 22.18436938 4.83347282 20.0625 6.75 C14.49313624 9.0232097 9.12011981 8.75718565 3.5 6.75 C0.96094156 4.97265909 -0.00147198 3.89573124 -1 1 C-0.67 0.67 -0.34 0.34 0 0 Z " fill="#344532" transform="translate(199,206)"/>
<path d="M0 0 C0.598125 0.165 1.19625 0.33 1.8125 0.5 C4.11344336 1.1114124 4.11344336 1.1114124 7 1 C6.25 7.75 6.25 7.75 4 10 C1.34462628 10.56520003 -1.29144713 10.73788198 -4 11 C-3.67 10.01 -3.34 9.02 -3 8 C-2.01 8 -1.02 8 0 8 C-0.185625 7.05125 -0.37125 6.1025 -0.5625 5.125 C-1 2 -1 2 0 0 Z " fill="#956849" transform="translate(436,201)"/>
<path d="M0 0 C2.375 1.75 2.375 1.75 4 4 C4 5.32 4 6.64 4 8 C3.34 8 2.68 8 2 8 C1.34 7.01 0.68 6.02 0 5 C-2.45709375 4.41649495 -2.45709375 4.41649495 -5 5 C-6.70532323 6.94009522 -6.70532323 6.94009522 -8 9 C-8.66 9 -9.32 9 -10 9 C-10.35882213 5.77060081 -10.27258004 4.38790237 -8.375 1.6875 C-5.2935202 -0.50197249 -3.70758991 -0.61793165 0 0 Z " fill="#245142" transform="translate(228,180)"/>
<path d="M0 0 C4.49692378 -0.3526999 7.94895266 -0.5147987 12.0625 1.5 C14.92804081 5.19747201 14.51281696 7.38464735 14 12 C13.01 13.485 13.01 13.485 12 15 C8.83884224 13.63016497 8.0072908 13.0109362 6 10 C6.804375 9.71125 7.60875 9.4225 8.4375 9.125 C11.1326468 8.26737432 11.1326468 8.26737432 12 6 C11.34 6 10.68 6 10 6 C9.835 5.360625 9.67 4.72125 9.5 4.0625 C8.218214 1.83880759 8.218214 1.83880759 6.0859375 1.51171875 C4.06424845 1.2724022 2.03158061 1.13106972 0 1 C0 0.67 0 0.34 0 0 Z " fill="#9E7B66" transform="translate(457,184)"/>
<path d="M0 0 C0.25706972 5.91260345 -0.7017874 11.23918159 -2 17 C-4 13.25 -4 13.25 -4 11 C-4.99 10.34 -5.98 9.68 -7 9 C-7.1875 6.375 -7.1875 6.375 -7 4 C-6.34 4 -5.68 4 -5 4 C-5 3.34 -5 2.68 -5 2 C-2 0 -2 0 0 0 Z " fill="#437968" transform="translate(164,180)"/>
<path d="M0 0 C0.66 0.99 1.32 1.98 2 3 C1.67 3.66 1.34 4.32 1 5 C2.32 5.33 3.64 5.66 5 6 C5 6.99 5 7.98 5 9 C4.34 9 3.68 9 3 9 C3.33 10.32 3.66 11.64 4 13 C3.01 13.33 2.02 13.66 1 14 C0.34 14.66 -0.32 15.32 -1 16 C-3.11912545 11.7617491 -2.25196473 6.88187654 -1 2.5 C-0.67 1.675 -0.34 0.85 0 0 Z " fill="#9C765B" transform="translate(447,193)"/>
<path d="M0 0 C0.66 0 1.32 0 2 0 C2 1.98 2 3.96 2 6 C5.465 5.505 5.465 5.505 9 5 C7.95505436 8.25094199 6.40864509 9.56873286 3.5625 11.25 C0 13 0 13 -3 13 C-2.49396008 10.83125748 -2.00016187 9.00032373 -1 7 C-1.66 6.67 -2.32 6.34 -3 6 C-2.01 5.34 -1.02 4.68 0 4 C0 2.68 0 1.36 0 0 Z " fill="#70A696" transform="translate(359,191)"/>
<path d="M0 0 C4.29 0.66 8.58 1.32 13 2 C12.67 2.99 12.34 3.98 12 5 C6.94997778 6.03590199 2.12583611 6.10251672 -3 6 C-2.34 5.67 -1.68 5.34 -1 5 C-0.67 3.35 -0.34 1.7 0 0 Z " fill="#609283" transform="translate(201,212)"/>
<path d="M0 0 C2.0625 0.4375 2.0625 0.4375 4 1 C3.01 2.485 3.01 2.485 2 4 C3.32 4.33 4.64 4.66 6 5 C6 5.99 6 6.98 6 8 C5.505 7.835 5.01 7.67 4.5 7.5 C-0.05963297 6.58807341 -4.55868337 6.51956112 -9 8 C-9 7.01 -9 6.02 -9 5 C-8.43410156 4.72285156 -7.86820313 4.44570312 -7.28515625 4.16015625 C-6.55167969 3.79792969 -5.81820312 3.43570313 -5.0625 3.0625 C-3.96615234 2.52302734 -3.96615234 2.52302734 -2.84765625 1.97265625 C-1.03750973 1.13628173 -1.03750973 1.13628173 0 0 Z " fill="#27433A" transform="translate(212,198)"/>
<path d="M0 0 C0.9075 0.495 1.815 0.99 2.75 1.5 C6.00873038 3.27937212 6.00873038 3.27937212 10 3 C10.33 3.99 10.66 4.98 11 6 C10.01 6 9.02 6 8 6 C7.67 6.66 7.34 7.32 7 8 C5.02 8 3.04 8 1 8 C-0.42944945 5.64561267 -1.08661261 4.51967567 -0.625 1.75 C-0.41875 1.1725 -0.2125 0.595 0 0 Z " fill="#91694D" transform="translate(427,193)"/>
<path d="M0 0 C1.67542976 0.28604898 3.34385343 0.61781233 5 1 C4.42655063 3.86724686 4.1385485 4.8614515 2 7 C1.60235737 8.98821313 1.26224651 10.98944339 1 13 C0.67 13 0.34 13 0 13 C0 10.69 0 8.38 0 6 C-1.65 6.66 -3.3 7.32 -5 8 C-5 8.66 -5 9.32 -5 10 C-5.66 9.67 -6.32 9.34 -7 9 C-6.02180976 7.68677212 -5.0424189 6.37443848 -4.0625 5.0625 C-3.51722656 4.33160156 -2.97195312 3.60070312 -2.41015625 2.84765625 C-1 1 -1 1 0 0 Z " fill="#639283" transform="translate(164,174)"/>
<path d="M0 0 C0.99 0.33 1.98 0.66 3 1 C3.6875 3.0625 3.6875 3.0625 4 5 C3.34 5 2.68 5 2 5 C2 5.66 2 6.32 2 7 C2.66 7.33 3.32 7.66 4 8 C3.01 8.495 3.01 8.495 2 9 C1.01 8.67 0.02 8.34 -1 8 C-1.33 7.34 -1.66 6.68 -2 6 C-2.99 6.99 -3.98 7.98 -5 9 C-5.66 8.67 -6.32 8.34 -7 8 C-5.51218185 4.21282653 -3.38011591 2.22592999 0 0 Z " fill="#A6866F" transform="translate(455,185)"/>
<path d="M0 0 C0 1.65 0 3.3 0 5 C-1.65 5.66 -3.3 6.32 -5 7 C-5.33 6.34 -5.66 5.68 -6 5 C-8.3140622 4.26924352 -10.64828869 3.59861742 -13 3 C-9.54666565 -0.45333435 -4.63654999 -1.85462 0 0 Z " fill="#649B8B" transform="translate(195,160)"/>
<path d="M0 0 C2 3 2 3 2 6 C1.01 6.495 1.01 6.495 0 7 C0.66 7.33 1.32 7.66 2 8 C2.625 11.0625 2.625 11.0625 3 14 C4.65 14 6.3 14 8 14 C8 14.33 8 14.66 8 15 C2.45040214 15.36997319 2.45040214 15.36997319 0.25 13.5625 C-0.1625 13.046875 -0.575 12.53125 -1 12 C-1.66 11.67 -2.32 11.34 -3 11 C-3.875 8.8125 -3.875 8.8125 -4 6 C-2.0625 2.6875 -2.0625 2.6875 0 0 Z " fill="#80B1A1" transform="translate(386,200)"/>
<path d="M0 0 C0.92151651 3.68606605 1.29808979 6.9727113 1.5625 10.75 C1.64628906 11.92046875 1.73007812 13.0909375 1.81640625 14.296875 C1.87699219 15.18890625 1.93757813 16.0809375 2 17 C0.68 16.01 -0.64 15.02 -2 14 C-2.99 14.495 -2.99 14.495 -4 15 C-4 14.34 -4 13.68 -4 13 C-4.66 13 -5.32 13 -6 13 C-6 11.68 -6 10.36 -6 9 C-5.01 8.67 -4.02 8.34 -3 8 C-2.67 8.33 -2.34 8.66 -2 9 C-1.34 6.03 -0.68 3.06 0 0 Z " fill="#88B2A2" transform="translate(370,196)"/>
<path d="M0 0 C0.33 1.32 0.66 2.64 1 4 C1.66 4 2.32 4 3 4 C3.33 3.01 3.66 2.02 4 1 C4.99 0.67 5.98 0.34 7 0 C9.1519437 3.22791555 9.20086443 4.28400809 9 8 C6 7 6 7 4 5 C3.34 6.32 2.68 7.64 2 9 C1.34 9 0.68 9 0 9 C0 6.03 0 3.06 0 0 Z " fill="#63A18D" transform="translate(332,186)"/>
<path d="M0 0 C4.29 0.66 8.58 1.32 13 2 C7.42101207 6.18424095 5.08655043 7.25749771 -1.6875 6.625 C-2.38939453 6.56828125 -3.09128906 6.5115625 -3.81445312 6.453125 C-5.54380285 6.31195359 -7.27204088 6.15728041 -9 6 C-9 5.67 -9 5.34 -9 5 C-3.555 4.505 -3.555 4.505 2 4 C1.34 2.68 0.68 1.36 0 0 Z " fill="#91BCAC" transform="translate(206,158)"/>
<path d="M0 0 C1.65 0.33 3.3 0.66 5 1 C4.01 1.495 4.01 1.495 3 2 C3.33 2.99 3.66 3.98 4 5 C3.01 6.485 3.01 6.485 2 8 C2.763125 8.268125 3.52625 8.53625 4.3125 8.8125 C6.87380884 9.94424112 8.19692938 10.91223401 10 13 C9.67 13.66 9.34 14.32 9 15 C6.80273438 13.046875 6.80273438 13.046875 4.60546875 11.09375 C2.910552 9.71848759 2.910552 9.71848759 0 10 C-1.6875 8.625 -1.6875 8.625 -3 7 C-3 6.34 -3 5.68 -3 5 C-2.01 4.34 -1.02 3.68 0 3 C0 2.01 0 1.02 0 0 Z " fill="#91C2B1" transform="translate(225,163)"/>
<path d="M0 0 C0.66 1.32 1.32 2.64 2 4 C1.34 4 0.68 4 0 4 C-0.33 4.66 -0.66 5.32 -1 6 C-3.93230451 7.98128683 -6.51102321 9.35389319 -10 10 C-9.625 8.0625 -9.625 8.0625 -9 6 C-8.34 5.67 -7.68 5.34 -7 5 C-7 4.34 -7 3.68 -7 3 C-6.401875 2.87625 -5.80375 2.7525 -5.1875 2.625 C-2.73768652 2.04524015 -2.73768652 2.04524015 0 0 Z " fill="#509883" transform="translate(333,217)"/>
<path d="M0 0 C2.475 0.99 2.475 0.99 5 2 C5 2.99 5 3.98 5 5 C0.32474688 7.56384848 -3.95043132 7.12011899 -9 6 C-11.27734375 4.953125 -11.27734375 4.953125 -13 4 C-12.67 3.01 -12.34 2.02 -12 1 C-11.34 1 -10.68 1 -10 1 C-10 1.99 -10 2.98 -10 4 C-6.04 4 -2.08 4 2 4 C1.34 2.68 0.68 1.36 0 0 Z " fill="#A55741" transform="translate(214,205)"/>
<path d="M0 0 C0.33 0.66 0.66 1.32 1 2 C1.66 1.34 2.32 0.68 3 0 C5.8203125 -0.1953125 5.8203125 -0.1953125 9.125 -0.125 C10.22070312 -0.10695312 11.31640625 -0.08890625 12.4453125 -0.0703125 C13.28835937 -0.04710937 14.13140625 -0.02390625 15 0 C12.08235 1.9451 10.37462715 2.45276317 7 3 C7 3.66 7 4.32 7 5 C3.37 4.67 -0.26 4.34 -4 4 C-4 3.34 -4 2.68 -4 2 C-2.68 1.34 -1.36 0.68 0 0 Z " fill="#7FA99C" transform="translate(218,212)"/>
<path d="M0 0 C2.94194821 2.73905523 5.33889284 5.30865076 7 9 C6.1875 11.3125 6.1875 11.3125 5 13 C4.67 11.02 4.34 9.04 4 7 C2.68 6.67 1.36 6.34 0 6 C-0.33 6.66 -0.66 7.32 -1 8 C-1.66 7.67 -2.32 7.34 -3 7 C-2.625 4.0625 -2.625 4.0625 -2 1 C-1.34 0.67 -0.68 0.34 0 0 Z " fill="#77B09D" transform="translate(244,176)"/>
<path d="M0 0 C2 1 4 2 6 3 C5.67 4.98 5.34 6.96 5 9 C1.70897992 9.90786761 -0.81119049 10.59440475 -4 9 C-3.67 8.34 -3.34 7.68 -3 7 C-1.68 7 -0.36 7 1 7 C1.33 5.35 1.66 3.7 2 2 C1.34 2 0.68 2 0 2 C0 1.34 0 0.68 0 0 Z " fill="#75A497" transform="translate(180,163)"/>
<path d="M0 0 C0.33 0 0.66 0 1 0 C1 3.96 1 7.92 1 12 C1.66 12 2.32 12 3 12 C2.67 12.66 2.34 13.32 2 14 C2.33 14.33 2.66 14.66 3 15 C2.01 15.495 2.01 15.495 1 16 C1.33 16.99 1.66 17.98 2 19 C1.34 19.33 0.68 19.66 0 20 C-0.33 20.99 -0.66 21.98 -1 23 C-1.66 22.67 -2.32 22.34 -3 22 C-2.01 14.74 -1.02 7.48 0 0 Z " fill="#91BAA9" transform="translate(331,196)"/>
<path d="M0 0 C0.66 0.99 1.32 1.98 2 3 C1.01 3.33 0.02 3.66 -1 4 C-1 4.66 -1 5.32 -1 6 C1.64 5.67 4.28 5.34 7 5 C6.67 5.99 6.34 6.98 6 8 C2.6875 8.6875 2.6875 8.6875 -1 9 C-2.9375 7.5625 -2.9375 7.5625 -4 6 C-2.84826645 3.53199953 -1.95216435 1.95216435 0 0 Z " fill="#89B1A4" transform="translate(325,220)"/>
<path d="M0 0 C0.33 0 0.66 0 1 0 C1.33 4.62 1.66 9.24 2 14 C-2.455 14.495 -2.455 14.495 -7 15 C-7 14.34 -7 13.68 -7 13 C-5.68 13 -4.36 13 -3 13 C-2.67 12.01 -2.34 11.02 -2 10 C-1.34 10 -0.68 10 0 10 C0 6.7 0 3.4 0 0 Z " fill="#79AB99" transform="translate(325,200)"/>
<path d="M0 0 C0.33 0.66 0.66 1.32 1 2 C0.67 2.99 0.34 3.98 0 5 C0.99 5.33 1.98 5.66 3 6 C3 6.66 3 7.32 3 8 C1.03533587 9.06775224 -0.96855359 10.06553465 -3 11 C-3.66 10.67 -4.32 10.34 -5 10 C-5.20086443 6.28400809 -5.1519437 5.22791555 -3 2 C-2.01 1.34 -1.02 0.68 0 0 Z " fill="#7BB0A1" transform="translate(314,204)"/>
<path d="M0 0 C0.763125 0.20625 1.52625 0.4125 2.3125 0.625 C1.9825 2.275 1.6525 3.925 1.3125 5.625 C-0.9975 5.625 -3.3075 5.625 -5.6875 5.625 C-5.6875 4.305 -5.6875 2.985 -5.6875 1.625 C-2.6875 -0.375 -2.6875 -0.375 0 0 Z " fill="#5E9884" transform="translate(179.6875,164.375)"/>
<path d="M0 0 C3.29714793 0.32971479 4.6226839 0.6226839 7 3 C5.35 3 3.7 3 2 3 C1.67 4.32 1.34 5.64 1 7 C1.66 7 2.32 7 3 7 C3 7.66 3 8.32 3 9 C3.99 9.33 4.98 9.66 6 10 C0.25 9.25 0.25 9.25 -2 7 C-2.25 4.5 -2.25 4.5 -2 2 C-1.34 1.34 -0.68 0.68 0 0 Z " fill="#B49882" transform="translate(424,205)"/>
<path d="M0 0 C2.88956687 1.29532308 5.01041688 2.5130211 7 5 C7.29296875 7.26171875 7.29296875 7.26171875 7.1875 9.6875 C7.16042969 10.49574219 7.13335937 11.30398437 7.10546875 12.13671875 C7.07066406 12.75160156 7.03585937 13.36648437 7 14 C6.01 14.495 6.01 14.495 5 15 C5.0825 13.906875 5.165 12.81375 5.25 11.6875 C5.12625 9.8621875 5.12625 9.8621875 5 8 C3.09663191 6.34329588 3.09663191 6.34329588 1 5 C0.25 2.3125 0.25 2.3125 0 0 Z " fill="#AC8F7B" transform="translate(437,196)"/>
<path d="M0 0 C1.65 0 3.3 0 5 0 C5.33 0.66 5.66 1.32 6 2 C5.34 2 4.68 2 4 2 C4.33 3.32 4.66 4.64 5 6 C2.39417629 6.93065133 1.35801776 7.14917407 -1.25 6.0625 C-1.8275 5.711875 -2.405 5.36125 -3 5 C-2.34 5 -1.68 5 -1 5 C-0.67 3.35 -0.34 1.7 0 0 Z " fill="#569C86" transform="translate(337,173)"/>
<path d="M0 0 C1.26549993 3.79649978 0.30826178 5.30608437 -1 9 C-1 9.99 -1 10.98 -1 12 C-2.32 11.67 -3.64 11.34 -5 11 C-5.33 11.66 -5.66 12.32 -6 13 C-5.26083824 7.97370003 -3.63107238 3.63107238 0 0 Z " fill="#73A293" transform="translate(175,179)"/>
<path d="M0 0 C0 3.96 0 7.92 0 12 C-0.33 12 -0.66 12 -1 12 C-1 9.36 -1 6.72 -1 4 C-1.99 4.33 -2.98 4.66 -4 5 C-6.6875 3.0625 -6.6875 3.0625 -9 1 C-6 0 -6 0 0 0 Z " fill="#97BEB1" transform="translate(412,184)"/>
<path d="M0 0 C0.66 0.66 1.32 1.32 2 2 C1.625 4.125 1.625 4.125 1 6 C2.65 5.67 4.3 5.34 6 5 C6 5.66 6 6.32 6 7 C6.99 7.33 7.98 7.66 9 8 C6.26094655 9.36952673 4.02912668 9.12621361 1 9 C0.34 8.67 -0.32 8.34 -1 8 C-1.125 2.25 -1.125 2.25 0 0 Z " fill="#7BAF9D" transform="translate(403,173)"/>
<path d="M0 0 C1.32 0.33 2.64 0.66 4 1 C3.67 1.99 3.34 2.98 3 4 C2.65179959 5.66362417 2.31595508 7.32995171 2 9 C0.68 9.33 -0.64 9.66 -2 10 C-1.34 9.67 -0.68 9.34 0 9 C-1.65 7.02 -3.3 5.04 -5 3 C-3.35 3 -1.7 3 0 3 C0 2.01 0 1.02 0 0 Z " fill="#A27D63" transform="translate(434,198)"/>
<path d="M0 0 C2.97 0.495 2.97 0.495 6 1 C5.01 2.485 5.01 2.485 4 4 C4.495 4.53625 4.99 5.0725 5.5 5.625 C7.37489544 8.59358445 7.23501425 10.55312427 7 14 C3.03810217 9.76486783 1.56818272 5.452999 0 0 Z " fill="#8DBBAB" transform="translate(279,197)"/>
<path d="M0 0 C2 1 2 1 4 3 C4.36933645 5.75372909 4.18336678 8.20365661 4 11 C3.67 10.01 3.34 9.02 3 8 C2.34 8 1.68 8 1 8 C-0.38232443 6.37373596 -1.71937515 4.7074998 -3 3 C-2.01 2.67 -1.02 2.34 0 2 C0 1.34 0 0.68 0 0 Z " fill="#73A896" transform="translate(365,185)"/>
<path d="M0 0 C-5.16569441 1.79217969 -8.51053913 2.12029814 -14 1 C-8.39444537 -3.60456273 -6.12426136 -3.06213068 0 0 Z " fill="#648E81" transform="translate(244,211)"/>
<path d="M0 0 C2.5 1.6875 2.5 1.6875 5 4 C5.3125 6.75 5.3125 6.75 5 9 C3.02 9.99 3.02 9.99 1 11 C0.4254048 7.26513121 0 3.78706732 0 0 Z " fill="#6EA797" transform="translate(379,204)"/>
<path d="M0 0 C2.97 0.495 2.97 0.495 6 1 C6.38218767 2.65614657 6.71395102 4.32457024 7 6 C6.67 6.33 6.34 6.66 6 7 C3.66055264 6.71269945 1.3260857 6.38063221 -1 6 C0.32 5.01 1.64 4.02 3 3 C2.01 2.67 1.02 2.34 0 2 C0 1.34 0 0.68 0 0 Z " fill="#79AC9A" transform="translate(219,161)"/>
<path d="M0 0 C0.33 0 0.66 0 1 0 C1 4.95 1 9.9 1 15 C0.67 14.34 0.34 13.68 0 13 C-0.99 13.33 -1.98 13.66 -3 14 C-3.99 13.34 -4.98 12.68 -6 12 C-5.01 11.67 -4.02 11.34 -3 11 C-2.67 10.34 -2.34 9.68 -2 9 C-1.34 9.33 -0.68 9.66 0 10 C0 6.7 0 3.4 0 0 Z " fill="#51917D" transform="translate(297,185)"/>
<path d="M0 0 C0.66666667 2.66666667 1.33333333 5.33333333 2 8 C3.32 8.33 4.64 8.66 6 9 C5 10 5 10 3.15234375 10.09765625 C1.1015625 10.06510417 -0.94921875 10.03255208 -3 10 C-2.69201674 8.51988629 -2.378482 7.04092675 -2.0625 5.5625 C-1.88847656 4.73878906 -1.71445313 3.91507813 -1.53515625 3.06640625 C-1 1 -1 1 0 0 Z " fill="#335A4D" transform="translate(225,217)"/>
<path d="M0 0 C1.32 0 2.64 0 4 0 C4 1.65 4 3.3 4 5 C1.69 5 -0.62 5 -3 5 C-3 4.01 -3 3.02 -3 2 C-2.01 2 -1.02 2 0 2 C0 1.34 0 0.68 0 0 Z " fill="#73A696" transform="translate(270,210)"/>
<path d="M0 0 C3 1 3 1 4.1875 3.0625 C4.455625 3.701875 4.72375 4.34125 5 5 C3.1875 6.0625 3.1875 6.0625 1 7 C0.01 6.67 -0.98 6.34 -2 6 C-1.49396008 3.83125748 -1.00016187 2.00032373 0 0 Z " fill="#966E57" transform="translate(463,195)"/>
<path d="M0 0 C0.66 0 1.32 0 2 0 C1.34 3.3 0.68 6.6 0 10 C-3 10 -3 10 -6 9 C-5.34 9 -4.68 9 -4 9 C-3.71125 8.071875 -3.4225 7.14375 -3.125 6.1875 C-2 3 -2 3 0 0 Z " fill="#60887A" transform="translate(170,190)"/>
<path d="M0 0 C8.03501094 -0.63019694 8.03501094 -0.63019694 12.0625 2 C12.701875 2.66 13.34125 3.32 14 4 C13.67 5.32 13.34 6.64 13 8 C13 7.34 13 6.68 13 6 C12.01 6 11.02 6 10 6 C9.835 5.360625 9.67 4.72125 9.5 4.0625 C8.218214 1.83880759 8.218214 1.83880759 6.0859375 1.51171875 C4.06424845 1.2724022 2.03158061 1.13106972 0 1 C0 0.67 0 0.34 0 0 Z " fill="#B09988" transform="translate(457,184)"/>
<path d="M0 0 C-3.81234923 3.3502463 -7.33285711 5.16974789 -12 7 C-9.87654283 1.40179474 -5.8147806 -0.49840977 0 0 Z " fill="#AE957F" transform="translate(436,184)"/>
<path d="M0 0 C1.64826111 2.96687001 2.44271087 5.65626525 3 9 C1.68 9 0.36 9 -1 9 C-1.66 8.34 -2.32 7.68 -3 7 C-2.67028521 3.70285207 -2.3773161 2.3773161 0 0 Z " fill="#559781" transform="translate(223,184)"/>
<path d="M0 0 C0.99 0.33 1.98 0.66 3 1 C2.06409496 2.1055189 1.12620142 3.20935453 0.1875 4.3125 C-0.33457031 4.92738281 -0.85664063 5.54226562 -1.39453125 6.17578125 C-2.87172469 7.85424679 -4.40039131 9.43882034 -6 11 C-6.33 10.01 -6.66 9.02 -7 8 C-6.34 7.01 -5.68 6.02 -5 5 C-4.34 5 -3.68 5 -3 5 C-3 4.34 -3 3.68 -3 3 C-1.5 1.375 -1.5 1.375 0 0 Z " fill="#7CA399" transform="translate(172,172)"/>
<path d="M0 0 C1 3 1 3 0 6 C-0.99 5.67 -1.98 5.34 -3 5 C-2.625 3.0625 -2.625 3.0625 -2 1 C-1.34 0.67 -0.68 0.34 0 0 Z M-5 4 C-4.67 4.66 -4.34 5.32 -4 6 C-3.34 6.33 -2.68 6.66 -2 7 C-2.66 7.66 -3.32 8.32 -4 9 C-4.66 9 -5.32 9 -6 9 C-5.67 7.35 -5.34 5.7 -5 4 Z " fill="#509A83" transform="translate(298,174)"/>
<path d="M0 0 C2 3 2 3 1.875 4.9375 C0.72576566 7.64640953 -0.73855056 9.13762987 -3 11 C-3.99 11 -4.98 11 -6 11 C-4.97088923 8.78345373 -3.91765775 6.89130823 -2.4375 4.9375 C-0.81311272 2.95818504 -0.81311272 2.95818504 0 0 Z " fill="#529580" transform="translate(225,203)"/>
<path d="M0 0 C1.32 0.33 2.64 0.66 4 1 C5.35384615 7.4 5.35384615 7.4 3.5625 10.4375 C3.046875 10.953125 2.53125 11.46875 2 12 C1.34 11.67 0.68 11.34 0 11 C0.66 7.7 1.32 4.4 2 1 C1.34 0.67 0.68 0.34 0 0 Z " fill="#8BBAA7" transform="translate(315,191)"/>
<path d="M0 0 C0.66 0.33 1.32 0.66 2 1 C2.20086443 4.71599191 2.1519437 5.77208445 0 9 C-0.99 8.67 -1.98 8.34 -3 8 C-3 7.01 -3 6.02 -3 5 C-3.66 4.01 -4.32 3.02 -5 2 C-1.125 2.875 -1.125 2.875 0 4 C0 2.68 0 1.36 0 0 Z " fill="#699E8D" transform="translate(206,151)"/>
<path d="M0 0 C1.4606285 2.64738916 2 3.89448334 2 7 C0.68 7.33 -0.64 7.66 -2 8 C-2.6875 5.6875 -2.6875 5.6875 -3 3 C-1.5625 1.1875 -1.5625 1.1875 0 0 Z " fill="#315C4E" transform="translate(156,219)"/>
<path d="M0 0 C1.4540625 0.0309375 1.4540625 0.0309375 2.9375 0.0625 C2.6075 1.0525 2.2775 2.0425 1.9375 3.0625 C2.5975 3.3925 3.2575 3.7225 3.9375 4.0625 C1.03149739 5.31914978 -0.85854584 6.0625 -4.0625 6.0625 C-4.0625 5.4025 -4.0625 4.7425 -4.0625 4.0625 C-3.4025 3.7325 -2.7425 3.4025 -2.0625 3.0625 C-2.7225 2.4025 -3.3825 1.7425 -4.0625 1.0625 C-3.0625 0.0625 -3.0625 0.0625 0 0 Z " fill="#32584C" transform="translate(243.0625,207.9375)"/>
<path d="M0 0 C2.79551999 2.06625391 3.01067926 3.06882192 3.5625 6.625 C3.706875 7.73875 3.85125 8.8525 4 10 C4.66 10.33 5.32 10.66 6 11 C5.67 11.66 5.34 12.32 5 13 C0.02036199 8.18099548 0.02036199 8.18099548 -0.0625 3.375 C-0.041875 2.26125 -0.02125 1.1475 0 0 Z " fill="#85B29F" transform="translate(343,200)"/>
<path d="M0 0 C6.625 0.75 6.625 0.75 10 3 C10 3.66 10 4.32 10 5 C8.02 4.34 6.04 3.68 4 3 C3.67 3.66 3.34 4.32 3 5 C2.34 4.67 1.68 4.34 1 4 C0.375 1.9375 0.375 1.9375 0 0 Z " fill="#6CA793" transform="translate(215,168)"/>
<path d="M0 0 C0.33 0 0.66 0 1 0 C1.33266291 6.20970773 0.45029331 10.28264895 -2 16 C-2.33 16 -2.66 16 -3 16 C-3.25 9.375 -3.25 9.375 -1 6 C-0.60986284 4.0103005 -0.26797351 2.00980131 0 0 Z " fill="#7FADA0" transform="translate(340,205)"/>
<path d="M0 0 C0.33 1.32 0.66 2.64 1 4 C1.66 4 2.32 4 3 4 C3.33 5.98 3.66 7.96 4 10 C5.65 10 7.3 10 9 10 C7.02 10.99 7.02 10.99 5 12 C2.69857565 10.21825212 1.19965609 8.83695835 0.51171875 5.953125 C0.27676898 3.9753389 0.13248542 1.98728128 0 0 Z " fill="#9CBDB2" transform="translate(299,203)"/>
<path d="M0 0 C2.87579981 4.31369972 4 7.80734761 4 13 C3.01 13 2.02 13 1 13 C0.67 8.71 0.34 4.42 0 0 Z " fill="#8FBCAD" transform="translate(251,187)"/>
<path d="M0 0 C1.65 0.33 3.3 0.66 5 1 C5.33 2.32 5.66 3.64 6 5 C3.69 5 1.38 5 -1 5 C-1.33 4.34 -1.66 3.68 -2 3 C-1.34 3 -0.68 3 0 3 C0 2.01 0 1.02 0 0 Z " fill="#70A796" transform="translate(351,210)"/>
<path d="M0 0 C4.62 0 9.24 0 14 0 C14.33 0.99 14.66 1.98 15 3 C14.505 2.835 14.01 2.67 13.5 2.5 C8.94036703 1.58807341 4.44131663 1.51956112 0 3 C0 2.01 0 1.02 0 0 Z " fill="#473E29" transform="translate(203,203)"/>
<path d="M0 0 C0.66 0.33 1.32 0.66 2 1 C-3.5 6 -3.5 6 -8 6 C-7 3 -7 3 -3.5625 1.25 C-2.386875 0.8375 -1.21125 0.425 0 0 Z " fill="#768A80" transform="translate(149,209)"/>
<path d="M0 0 C0 1.33333333 0 2.66666667 0 4 C-2.31 4 -4.62 4 -7 4 C-7 3.01 -7 2.02 -7 1 C-4.53721199 -0.231394 -2.7204945 -0.07159196 0 0 Z " fill="#996A4A" transform="translate(463,209)"/>
<path d="M0 0 C0.33 0.66 0.66 1.32 1 2 C3.02463255 2.65213292 3.02463255 2.65213292 5 3 C5 3.99 5 4.98 5 6 C4.01 6.33 3.02 6.66 2 7 C0.4375 5.75 0.4375 5.75 -1 4 C-0.6875 1.8125 -0.6875 1.8125 0 0 Z " fill="#98694D" transform="translate(425,206)"/>
<path d="M0 0 C1.32 0.33 2.64 0.66 4 1 C3.8125 2.875 3.8125 2.875 3 5 C0.4375 6.25 0.4375 6.25 -2 7 C-2.66 6.34 -3.32 5.68 -4 5 C-2.35 4.34 -0.7 3.68 1 3 C0.67 2.01 0.34 1.02 0 0 Z " fill="#42422F" transform="translate(218,206)"/>
<path d="M0 0 C1.32 0.99 2.64 1.98 4 3 C3.67 3.99 3.34 4.98 3 6 C2.01 6.33 1.02 6.66 0 7 C0 6.34 0 5.68 0 5 C-0.66 5 -1.32 5 -2 5 C-2 3.68 -2 2.36 -2 1 C-1.34 0.67 -0.68 0.34 0 0 Z " fill="#9FC4B8" transform="translate(366,204)"/>
<path d="M0 0 C1.65 0.33 3.3 0.66 5 1 C4.34 2.32 3.68 3.64 3 5 C1.68 5 0.36 5 -1 5 C-0.67 3.35 -0.34 1.7 0 0 Z " fill="#956548" transform="translate(464,189)"/>
<path d="M0 0 C-0.66 0.66 -1.32 1.32 -2 2 C-1.67 2.66 -1.34 3.32 -1 4 C-2.65 4 -4.3 4 -6 4 C-6 2.68 -6 1.36 -6 0 C-3.50907189 -1.24546405 -2.58919267 -0.7767578 0 0 Z " fill="#DBD8D5" transform="translate(120,190)"/>
<path d="M0 0 C1.90845703 0.04060547 1.90845703 0.04060547 3.85546875 0.08203125 C5.31919922 0.13423828 5.31919922 0.13423828 6.8125 0.1875 C6.8125 0.5175 6.8125 0.8475 6.8125 1.1875 C2.8525 1.1875 -1.1075 1.1875 -5.1875 1.1875 C-5.1875 1.8475 -5.1875 2.5075 -5.1875 3.1875 C-6.8375 3.1875 -8.4875 3.1875 -10.1875 3.1875 C-7.45798749 -0.67846382 -4.44588996 -0.12236394 0 0 Z " fill="#94BBAC" transform="translate(320.1875,183.8125)"/>
<path d="M0 0 C2.64 0 5.28 0 8 0 C7.34 1.32 6.68 2.64 6 4 C4.68 4 3.36 4 2 4 C2 3.01 2 2.02 2 1 C1.34 0.67 0.68 0.34 0 0 Z " fill="#71AC9B" transform="translate(404,172)"/>
<path d="M0 0 C2.64 0.33 5.28 0.66 8 1 C8.33 2.32 8.66 3.64 9 5 C6.03 4.01 3.06 3.02 0 2 C0 1.34 0 0.68 0 0 Z " fill="#85AB9D" transform="translate(271,171)"/>
<path d="M0 0 C2.475 0.99 2.475 0.99 5 2 C5.66 1.34 6.32 0.68 7 0 C7.99 0 8.98 0 10 0 C9.34 1.32 8.68 2.64 8 4 C4.31245243 3.50168276 2.39509338 2.89932357 0 0 Z " fill="#5AA08A" transform="translate(229,171)"/>
<path d="M0 0 C1 3 1 3 1 5 C0.01 5 -0.98 5 -2 5 C-2 5.66 -2 6.32 -2 7 C-2.99 7.33 -3.98 7.66 -5 8 C-3.8141763 4.62496331 -2.72426311 2.35277269 0 0 Z " fill="#8FB8A8" transform="translate(376,188)"/>
<path d="M0 0 C1.0625 1.8125 1.0625 1.8125 2 4 C1.67 4.99 1.34 5.98 1 7 C0.01 7 -0.98 7 -2 7 C-2.33 7.66 -2.66 8.32 -3 9 C-2.44271087 5.65626525 -1.64826111 2.96687001 0 0 Z " fill="#83A599" transform="translate(156,185)"/>
<path d="M0 0 C1.5 1.1875 1.5 1.1875 3 3 C3.1875 5.6875 3.1875 5.6875 3 8 C2.01 7.67 1.02 7.34 0 7 C-0.38133299 5.0085944 -0.71325582 3.00720923 -1 1 C-0.67 0.67 -0.34 0.34 0 0 Z " fill="#52957F" transform="translate(338,186)"/>
<path d="M0 0 C1.21236328 0.04060547 1.21236328 0.04060547 2.44921875 0.08203125 C3.06410156 0.11683594 3.67898438 0.15164062 4.3125 0.1875 C4.3125 0.5175 4.3125 0.8475 4.3125 1.1875 C2.3325 1.1875 0.3525 1.1875 -1.6875 1.1875 C-1.6875 1.8475 -1.6875 2.5075 -1.6875 3.1875 C-3.6675 3.1875 -5.6475 3.1875 -7.6875 3.1875 C-5.26849268 0.20484049 -3.789448 -0.16475861 0 0 Z " fill="#97BBAD" transform="translate(359.6875,183.8125)"/>
<path d="M0 0 C2.475 0.99 2.475 0.99 5 2 C3.625 3.5 3.625 3.5 2 5 C1.34 5 0.68 5 0 5 C0 4.34 0 3.68 0 3 C-0.66 2.67 -1.32 2.34 -2 2 C-1.34 1.34 -0.68 0.68 0 0 Z " fill="#A28165" transform="translate(463,209)"/>
<path d="M0 0 C2.475 0.495 2.475 0.495 5 1 C4.67 2.32 4.34 3.64 4 5 C3.01 5 2.02 5 1 5 C0.67 3.35 0.34 1.7 0 0 Z " fill="#B7A18E" transform="translate(466,205)"/>
<path d="M0 0 C-1.0975223 2.99324263 -1.67682892 3.84610901 -4.625 5.25 C-5.40875 5.4975 -6.1925 5.745 -7 6 C-6.6875 4.125 -6.6875 4.125 -6 2 C-3 0 -3 0 0 0 Z " fill="#8DB7A7" transform="translate(368,196)"/>
<path d="M0 0 C2.475 0.99 2.475 0.99 5 2 C4.67 3.32 4.34 4.64 4 6 C3.01 5.67 2.02 5.34 1 5 C0 3 0 3 0 0 Z " fill="#976644" transform="translate(427,193)"/>
<path d="M0 0 C1.65 1.65 3.3 3.3 5 5 C2 6 2 6 -1 5 C-0.67 3.35 -0.34 1.7 0 0 Z " fill="#76AF9C" transform="translate(239,171)"/>
<path d="M0 0 C0.33 0 0.66 0 1 0 C1 1.98 1 3.96 1 6 C-1.64 6 -4.28 6 -7 6 C-7 5.67 -7 5.34 -7 5 C-5.824375 4.87625 -5.824375 4.87625 -4.625 4.75 C-1.85250896 4.27193661 -1.85250896 4.27193661 -0.6875 1.9375 C-0.460625 1.298125 -0.23375 0.65875 0 0 Z " fill="#76A491" transform="translate(409,208)"/>
<path d="M0 0 C2.475 0.99 2.475 0.99 5 2 C5 2.99 5 3.98 5 5 C3.35 5.33 1.7 5.66 0 6 C0.66 5.34 1.32 4.68 2 4 C1.34 2.68 0.68 1.36 0 0 Z " fill="#B35B44" transform="translate(214,205)"/>
<path d="M0 0 C0.99 0.99 1.98 1.98 3 3 C2.34 4.98 1.68 6.96 1 9 C-0.61949011 6.42786866 -1.04408751 5.32330841 -0.625 2.25 C-0.41875 1.5075 -0.2125 0.765 0 0 Z " fill="#97BDB0" transform="translate(342,172)"/>
<path d="M0 0 C0.66 0.33 1.32 0.66 2 1 C0.68 3.31 -0.64 5.62 -2 8 C-2.66 8 -3.32 8 -4 8 C-3.40072174 4.64404172 -2.15377564 2.62198774 0 0 Z " fill="#8CB5A8" transform="translate(306,188)"/>
<path d="M0 0 C3.875 1.75 3.875 1.75 5 4 C3.35 4.33 1.7 4.66 0 5 C-0.5625 3.0625 -0.5625 3.0625 -1 1 C-0.67 0.67 -0.34 0.34 0 0 Z " fill="#AA8562" transform="translate(432,192)"/>
<path d="M0 0 C2.9375 0.375 2.9375 0.375 6 1 C6.33 1.66 6.66 2.32 7 3 C4.69 3.33 2.38 3.66 0 4 C0 2.68 0 1.36 0 0 Z " fill="#997257" transform="translate(457,188)"/>
<path d="M0 0 C1.32 0 2.64 0 4 0 C4 1.32 4 2.64 4 4 C1.69 3.67 -0.62 3.34 -3 3 C-2.01 2.67 -1.02 2.34 0 2 C0 1.34 0 0.68 0 0 Z " fill="#A9866E" transform="translate(438,189)"/>
<path d="M0 0 C0.33 0.99 0.66 1.98 1 3 C-0.65 4.65 -2.3 6.3 -4 8 C-2.25 2.25 -2.25 2.25 0 0 Z " fill="#8CAEA1" transform="translate(175,179)"/>
<path d="M0 0 C0.99 0.33 1.98 0.66 3 1 C3.33 1.99 3.66 2.98 4 4 C2.35 4.66 0.7 5.32 -1 6 C-0.67 4.02 -0.34 2.04 0 0 Z " fill="#5C9D89" transform="translate(228,165)"/>
</svg>
